<svg width="300" height="300" viewBox="0 0 300 300" fill="none" xmlns="http://www.w3.org/2000/svg">
<g clip-path="url(#clip0)">
<path d="M156.713 261.403V243.446H165.34V233.113H170.356C185.404 224.235 187.31 205.425 187.561 198.002H179.686V190.629H172.162V180.045H189.316C179.864 174.643 176.581 162.601 181.982 153.149C187.385 143.696 199.426 140.414 208.878 145.815C218.331 151.217 221.614 163.259 216.212 172.711C214.466 175.766 211.934 178.299 208.878 180.045H226.033V190.829H218.509V198.002H210.534C210.534 205.676 212.891 224.436 227.387 233.113H232.403L232.754 238.129V243.396H241.331V261.353L156.713 261.403Z" fill="#CC9640"/>
<path d="M58.6523 140.62V122.663H67.2296V112.33H72.2455C87.2932 103.452 89.1993 84.6422 89.4501 77.2187H81.5751V69.6948H74.0512V59.0611H91.2056C81.7531 53.6589 78.4702 41.6176 83.8717 32.1651C89.2739 22.7126 101.315 19.4297 110.768 24.8312C120.22 30.2327 123.503 42.2747 118.102 51.7272C116.355 54.7825 113.823 57.3149 110.768 59.0611H127.922V69.6948H120.398V76.8676H112.423C112.423 84.4917 114.78 103.301 129.276 111.979H134.292L134.643 116.995V122.262H143.271V140.219L58.6523 140.62Z" fill="#CC9640"/>
<path d="M100.937 174.176C54.2036 174.176 16.3184 136.291 16.3184 89.5579C16.3184 42.8246 54.2036 4.93945 100.937 4.93945C147.67 4.93945 185.555 42.8246 185.555 89.5579C185.555 89.625 185.555 89.6915 185.555 89.7586C185.389 136.391 147.569 174.122 100.937 174.176ZM58.6025 140.62H143.271V122.663H134.694V112.33H129.227L127.922 111.427C119.128 104.356 113.676 93.9418 112.875 82.6861L112.172 77.0182H120.298V69.6949H127.822V59.0612H113.928L118.141 51.5875C123.456 42.0854 120.061 30.0748 110.559 24.7605C101.057 19.4461 89.0466 22.8413 83.7323 32.3427C80.3885 38.3216 80.3885 45.6079 83.7323 51.5868L87.9456 59.0605H74.0515V69.6943H81.5754V76.8671H89.8015L89.0993 82.535C88.298 93.7907 82.8457 104.205 74.0515 111.276L72.7474 112.179H67.2299V122.462H58.6527L58.6025 140.62Z" fill="#FFCF70"/>
<path d="M199.049 294.96C152.343 294.988 114.458 257.148 114.43 210.442C114.422 197.409 117.426 184.552 123.208 172.872L124.161 170.966L126.218 170.314C146.83 163.854 164.186 149.746 174.722 130.889L175.775 129.033L177.832 128.481C223.069 116.863 269.16 144.117 280.778 189.354C292.396 234.592 265.142 280.683 219.904 292.301C213.09 294.052 206.084 294.944 199.049 294.96ZM156.715 261.403H241.333V243.446H232.756V233.113H227.288L225.984 232.21C217.19 225.139 211.738 214.725 210.937 203.469L210.184 197.801H218.31V190.629H225.834V180.045H211.99L216.203 172.571C221.518 163.069 218.122 151.059 208.621 145.744C199.12 140.43 187.108 143.825 181.794 153.326C178.45 159.305 178.45 166.592 181.794 172.571L186.058 180.044H172.113V190.829H179.637V198.001H187.763L187.061 203.669C186.259 214.925 180.807 225.339 172.013 232.41L170.709 233.313H165.342V243.596H156.715V261.403Z" fill="#FFCF70"/>
<path d="M143.271 117.647H139.659V112.33C139.659 109.56 137.413 107.314 134.643 107.314H130.781C121.752 100.994 118.793 89.4073 117.84 82.2346H120.298C123.068 82.2346 125.314 79.9887 125.314 77.2186V74.7107H127.821C130.592 74.7107 132.837 72.4648 132.837 69.6948V59.061C132.837 56.291 130.592 54.0451 127.821 54.0451H122.505C129.185 42.1329 124.944 27.0614 113.031 20.3814C101.119 13.7015 86.0477 17.9424 79.3677 29.8546C75.1544 37.3678 75.1544 46.5325 79.3677 54.0457H74.0509C71.2808 54.0457 69.035 56.2916 69.035 59.0616V69.6954C69.035 72.4654 71.2808 74.7113 74.0509 74.7113H76.5588V76.8681C76.5588 79.6382 78.8047 81.8841 81.5747 81.8841H84.0325C83.0795 89.2575 80.1703 100.844 71.1416 106.964H67.2292C64.4592 106.964 62.2133 109.21 62.2133 111.98V117.246H58.6019C55.8318 117.246 53.5859 119.492 53.5859 122.262V140.219C53.5859 142.989 55.8318 145.235 58.6019 145.235H143.271C146.041 145.235 148.286 142.989 148.286 140.219V122.663C148.286 119.893 146.041 117.647 143.271 117.647ZM138.255 135.604H63.6679V127.679H67.2794C70.0494 127.679 72.2953 125.433 72.2953 122.663V117.346H72.6464C73.5687 117.34 74.471 117.079 75.2547 116.594C91.8072 106.562 94.2148 85.6454 94.5158 77.1685C94.5158 74.3984 92.2699 72.1526 89.4999 72.1526H86.6408V69.6948C86.6408 66.9247 84.3949 64.6788 81.6249 64.6788H79.1169V63.9265H91.2555C94.0255 63.9459 96.287 61.7157 96.3065 58.9457C96.319 57.1268 95.3459 55.4433 93.7634 54.5467C86.7104 50.5296 84.2489 41.5561 88.266 34.5031C92.2825 27.4501 101.257 24.9885 108.31 29.0057C115.363 33.0228 117.824 41.9963 113.807 49.0493C112.501 51.3422 110.602 53.2413 108.31 54.5467C105.899 55.9123 105.053 58.9732 106.419 61.3834C107.315 62.9659 108.999 63.939 110.818 63.9265H122.956V64.6788H120.448C117.678 64.6788 115.432 66.9247 115.432 69.6948V71.8516H112.573C109.803 71.8516 107.557 74.0975 107.557 76.8675C107.808 85.3444 110.216 106.11 126.818 116.293C127.602 116.779 128.504 117.039 129.427 117.045H129.778V122.312C129.778 125.082 132.024 127.328 134.794 127.328H138.405L138.255 135.604Z" fill="#35231A"/>
<path d="M241.333 238.43H237.772V233.113C237.772 230.343 235.526 228.097 232.756 228.097H228.894C219.865 221.777 216.905 210.191 216.003 203.018H218.46C221.23 203.018 223.476 200.772 223.476 198.002V195.845H225.984C228.754 195.845 231 193.599 231 190.829V180.045C231 177.275 228.754 175.029 225.984 175.029H220.617C227.297 163.117 223.056 148.045 211.144 141.365C199.232 134.685 184.16 138.926 177.48 150.838C173.267 158.352 173.267 167.516 177.48 175.03H172.113C169.343 175.03 167.097 177.275 167.097 180.046V190.83C167.097 193.6 169.343 195.846 172.113 195.846H174.621V198.003C174.621 200.773 176.867 203.018 179.637 203.018H182.095C181.142 210.392 178.233 221.979 169.154 228.098H165.292C162.522 228.098 160.276 230.344 160.276 233.114V238.381H156.664C153.894 238.381 151.648 240.626 151.648 243.397V261.353C151.648 264.124 153.894 266.369 156.664 266.369H241.333C244.103 266.369 246.349 264.124 246.349 261.353V243.447C246.349 240.676 244.103 238.43 241.333 238.43ZM236.317 256.387H161.73V248.462H165.342C168.112 248.462 170.358 246.216 170.358 243.446V238.129H170.709C171.631 238.123 172.533 237.863 173.317 237.377C189.92 227.345 192.277 206.429 192.578 197.952C192.578 195.182 190.332 192.936 187.562 192.936H184.703V190.779C184.703 188.009 182.457 185.763 179.687 185.763H177.179V185.061H189.318C192.088 185.08 194.35 182.85 194.369 180.08C194.382 178.261 193.408 176.578 191.826 175.681C184.741 171.665 182.254 162.665 186.271 155.58C190.287 148.495 199.287 146.008 206.372 150.025C213.457 154.041 215.944 163.041 211.927 170.126C210.612 172.446 208.692 174.366 206.372 175.681C203.962 177.047 203.116 180.108 204.481 182.518C205.378 184.1 207.061 185.073 208.88 185.061H221.019V185.813H218.511C215.741 185.813 213.495 188.059 213.495 190.829V192.986H210.636C207.866 192.986 205.62 195.232 205.62 198.002C205.87 206.479 208.278 227.245 224.881 237.427C225.665 237.913 226.567 238.173 227.489 238.179H227.84V243.446C227.84 246.216 230.086 248.462 232.856 248.462H236.417L236.317 256.387Z" fill="#35231A"/>
<path d="M199.048 120.707C194.157 120.729 189.275 121.148 184.452 121.961C202.32 75.8236 179.403 23.9377 133.266 6.0698C87.1293 -11.7981 35.2428 11.1189 17.3748 57.2553C-0.493133 103.392 22.4233 155.278 68.5603 173.146C78.8862 177.145 89.8635 179.195 100.936 179.192C105.812 179.155 110.677 178.718 115.482 177.888C97.5592 224.033 120.437 275.971 166.583 293.894C212.728 311.817 264.666 288.939 282.589 242.794C300.512 196.649 277.634 144.711 231.489 126.788C221.129 122.764 210.111 120.702 198.997 120.707H199.048ZM100.937 169.16C56.9736 169.16 21.3342 133.521 21.3342 89.5578C21.3342 45.5946 56.9736 9.95525 100.937 9.95525C144.9 9.95525 180.539 45.5946 180.539 89.5578C180.539 89.6249 180.539 89.6914 180.539 89.7585C180.401 133.632 144.81 169.133 100.937 169.16ZM199.048 289.944C155.112 290.008 119.444 254.443 119.38 210.507C119.362 198.199 122.201 186.055 127.672 175.029C149.476 168.132 167.851 153.217 179.085 133.297C221.635 122.353 265.002 147.974 275.946 190.525C286.89 233.076 261.268 276.442 218.717 287.386C212.324 289.031 205.751 289.873 199.148 289.893L199.048 289.944Z" fill="#35231A"/>
<path d="M191.825 46.2705C192.126 46.2705 220.566 49.7315 236.316 70.1463C245.345 81.8334 248.655 96.9814 246.348 115.29C246.005 117.897 247.734 120.327 250.31 120.857H251.013C253.53 120.882 255.676 119.036 256.029 116.543C258.988 95.4767 254.975 77.7705 244.191 63.8764C225.733 40.1511 194.032 36.3892 192.928 36.2387C190.158 35.934 187.665 37.9328 187.361 40.7029C187.056 43.4729 189.054 45.9658 191.825 46.2705Z" fill="#35231A"/>
<path d="M97.4762 235.22C97.1753 235.22 68.735 234.016 51.3298 214.855C41.298 203.87 36.9341 188.973 38.0878 170.615C38.2677 167.845 36.168 165.453 33.3979 165.273C30.6279 165.093 28.2359 167.193 28.056 169.963C26.7017 191.18 32.0185 208.535 43.8561 221.577C64.1204 243.847 95.821 245.252 97.1251 245.252C99.8951 245.252 102.141 243.006 102.141 240.236C102.141 237.466 99.8951 235.22 97.1251 235.22H97.4762Z" fill="#35231A"/>
</g>
<defs>
<clipPath id="clip0">
<rect width="300" height="300" fill="white"/>
</clipPath>
</defs>
</svg>
