<svg width="110" height="110" viewBox="0 0 110 110" fill="none" xmlns="http://www.w3.org/2000/svg">
<path opacity="0.1" d="M93.8953 38.5297H16.1047C14.3237 38.5297 12.8821 39.9713 12.8821 41.7523V85.5676C12.8821 87.3486 14.3237 88.7902 16.1047 88.7902H43.2137V93.839C43.2137 94.7027 44.1805 95.2119 44.8938 94.7264L47.7534 92.7777L50.6129 94.7264C51.3262 95.2119 52.293 94.7027 52.293 93.839V88.7902H93.8953C95.6764 88.7902 97.118 87.3486 97.118 85.5676V41.7523C97.118 39.9713 95.6764 38.5297 93.8953 38.5297Z" fill="#1B62AD"/>
<path d="M97.1173 35.9515V79.7668C97.1173 81.5479 95.6757 82.9895 93.8946 82.9895H16.104C14.3229 82.9895 12.8813 81.5479 12.8813 79.7668V35.9515C12.8813 34.1705 14.3229 32.7289 16.104 32.7289H93.8946C95.6757 32.7289 97.1173 34.1705 97.1173 35.9515Z" fill="#6583FE"/>
<path d="M97.1182 73.0222H12.881V35.9513C12.881 34.1715 14.3239 32.7286 16.1036 32.7286H93.8955C95.6753 32.7286 97.1182 34.1715 97.1182 35.9513V73.0222Z" fill="white"/>
<path d="M52.2928 74.7997V88.0384C52.2928 88.9021 51.326 89.4112 50.6127 88.9257L47.7531 86.9771L44.8936 88.9257C44.1803 89.4112 43.2135 88.9021 43.2135 88.0384V74.7997H52.2928Z" fill="white"/>
<path d="M55 33.4186V74.1143C55 75.3002 54.0375 76.2627 52.8516 76.2627H22.1289C20.943 76.2627 19.9805 75.3002 19.9805 74.1143V30.1959C19.9805 29.01 20.943 28.0475 22.1289 28.0475H49.6289C52.5959 28.0475 55 30.4516 55 33.4186Z" fill="white"/>
<path d="M44.3115 49.3729C43.4973 49.9787 42.7217 50.2817 41.9848 50.2817C41.3209 50.2817 40.7816 49.9701 40.367 49.3449C39.9502 48.7391 39.7418 47.7938 39.7418 46.5069V31.9813C39.7418 30.5053 39.2734 29.1926 38.3367 28.0475H32.5789C32.8217 28.2043 33.0516 28.3805 33.2729 28.576C34.4266 29.5965 35.0045 30.8276 35.0045 32.2649V36.2932C29.6119 36.899 25.2957 38.1151 22.0516 39.9391C21.2652 40.3817 20.5756 40.8522 19.9805 41.3485V51.8071C21.3555 52.6621 23.2031 53.0897 25.5277 53.0897C27.4377 53.0897 29.0748 52.7739 30.4348 52.1401C31.7969 51.5063 33.376 50.243 35.1742 48.3524C35.8359 50.1119 36.6072 51.3408 37.4859 52.0412C38.3668 52.7395 39.4496 53.0897 40.7365 53.0897C42.4187 53.0897 43.9506 52.3807 45.332 50.9627L44.3115 49.3729ZM35.0045 41.9672C35.0045 44.5217 34.1859 46.6444 32.5488 48.3373C30.9139 50.0303 28.9781 50.8768 26.748 50.8768C25.4977 50.8768 24.4857 50.4664 23.7102 49.6436C22.9346 48.8207 22.5479 47.6799 22.5479 46.2233C22.5479 44.1436 23.2955 42.5344 24.7887 41.4C26.7932 39.9069 30.1984 38.8283 35.0045 38.1666V41.9672ZM24.0238 35.002C24.5717 34.4627 24.8467 33.7688 24.8467 32.9158C24.8467 32.3315 24.5717 31.659 24.0238 30.9028C23.5684 30.2969 23.3428 29.8522 23.3428 29.5686C23.3428 29.0766 23.7682 28.576 24.6189 28.0647C24.6297 28.0582 24.6404 28.0518 24.6512 28.0475H22.1289C20.943 28.0475 19.9805 29.01 19.9805 30.1959V35.2533C20.5197 35.625 21.1492 35.8098 21.8668 35.8098C22.7562 35.8098 23.4738 35.5412 24.0238 35.002Z" fill="#6583FE"/>
<path d="M57.1484 76.2628H87.8709C89.0575 76.2628 90.0193 75.301 90.0193 74.1144V30.1964C90.0193 29.0098 89.0575 28.048 87.8709 28.048H60.3711C57.4047 28.048 55 30.4527 55 33.4191V74.1144C55 75.301 55.9619 76.2628 57.1484 76.2628Z" fill="white"/>
<path d="M84.8677 28.048V45.1409C84.8677 45.7339 84.3864 46.2152 83.7934 46.2152H61.2177C60.6247 46.2152 60.1434 45.7339 60.1434 45.1409V28.0523C60.2186 28.0501 60.296 28.048 60.3712 28.048H84.8677Z" fill="#F7F3FF"/>
<path d="M22.5585 99.2578C22.2835 99.2578 22.0088 99.153 21.7989 98.9433L20.8398 97.984L19.8807 98.9431C19.4611 99.3625 18.7812 99.3625 18.3616 98.9431C17.942 98.5235 17.942 97.8433 18.3616 97.4239L20.0803 95.7052C20.4999 95.2858 21.1799 95.2858 21.5995 95.7052L23.3182 97.4239C23.7378 97.8435 23.7378 98.5237 23.3182 98.9431C23.1083 99.153 22.8335 99.2578 22.5585 99.2578Z" fill="#6583FE"/>
<path d="M54.9997 18.9064C54.7247 18.9064 54.4499 18.8016 54.24 18.5919L53.281 17.6328L52.3219 18.5919C51.9023 19.0112 51.2223 19.0112 50.8027 18.5919C50.3831 18.1723 50.3831 17.4921 50.8027 17.0727L52.5215 15.354C52.9411 14.9346 53.6211 14.9346 54.0407 15.354L55.7594 17.0727C56.179 17.4923 56.179 18.1725 55.7594 18.5919C55.5495 18.8016 55.2747 18.9064 54.9997 18.9064Z" fill="#6583FE"/>
<path d="M98.8376 25.1367H98.1931V24.4922C98.1931 23.899 97.7121 23.418 97.1189 23.418C96.5257 23.418 96.0447 23.899 96.0447 24.4922V25.1367H95.4001C94.807 25.1367 94.3259 25.6178 94.3259 26.2109C94.3259 26.8041 94.807 27.2852 95.4001 27.2852H96.0447V27.9297C96.0447 28.5229 96.5257 29.0039 97.1189 29.0039C97.7121 29.0039 98.1931 28.5229 98.1931 27.9297V27.2852H98.8376C99.4308 27.2852 99.9119 26.8041 99.9119 26.2109C99.9119 25.6178 99.4308 25.1367 98.8376 25.1367Z" fill="#6583FE"/>
<path d="M63.5577 11.4583H62.9132V10.8137C62.9132 10.2205 62.4322 9.7395 61.839 9.7395C61.2458 9.7395 60.7648 10.2205 60.7648 10.8137V11.4583H60.1202C59.5271 11.4583 59.046 11.9393 59.046 12.5325C59.046 13.1257 59.5271 13.6067 60.1202 13.6067H60.7648V14.2512C60.7648 14.8444 61.2458 15.3254 61.839 15.3254C62.4322 15.3254 62.9132 14.8444 62.9132 14.2512V13.6067H63.5577C64.1509 13.6067 64.632 13.1257 64.632 12.5325C64.632 11.9393 64.1511 11.4583 63.5577 11.4583Z" fill="#6583FE"/>
<path d="M16.2562 91.1079H15.6117V90.4634C15.6117 89.8702 15.1307 89.3892 14.5375 89.3892C13.9443 89.3892 13.4633 89.8702 13.4633 90.4634V91.1079H12.8187C12.2255 91.1079 11.7445 91.5889 11.7445 92.1821C11.7445 92.7753 12.2255 93.2563 12.8187 93.2563H13.4633V93.9009C13.4633 94.4941 13.9443 94.9751 14.5375 94.9751C15.1307 94.9751 15.6117 94.4941 15.6117 93.9009V93.2563H16.2562C16.8494 93.2563 17.3304 92.7753 17.3304 92.1821C17.3304 91.5889 16.8496 91.1079 16.2562 91.1079Z" fill="#6583FE"/>
<path d="M48.8173 70.2539H25.9208C25.3276 70.2539 24.8466 69.7728 24.8466 69.1797V65.1466C24.8466 64.5534 25.3276 64.0724 25.9208 64.0724H48.8173C49.4105 64.0724 49.8916 64.5534 49.8916 65.1466V69.1797C49.8916 69.7728 49.4107 70.2539 48.8173 70.2539Z" fill="#6583FE"/>
<path d="M83.7926 42.3498H61.2181C60.625 42.3498 60.1439 41.8688 60.1439 41.2756V21.1222C60.1439 20.529 60.625 20.048 61.2181 20.048H83.7926C84.3858 20.048 84.8669 20.529 84.8669 21.1222V41.2756C84.8669 41.8688 84.386 42.3498 83.7926 42.3498Z" fill="#6583FE"/>
<path d="M84.8669 26.2108V21.1222C84.8669 20.529 84.3858 20.048 83.7926 20.048H61.2181C60.625 20.048 60.1439 20.529 60.1439 21.1222V26.2108H84.8669Z" fill="white"/>
<path d="M93.896 31.6538H91.0933V30.1959C91.0933 28.4189 89.6477 26.9732 87.8707 26.9732H85.9412V21.1222C85.9412 19.9375 84.9774 18.9738 83.7927 18.9738H72.8963C72.3031 18.9738 71.8221 19.4548 71.8221 20.048C71.8221 20.6412 72.3031 21.1222 72.8963 21.1222H83.7927V41.2756H61.2183V21.1222H66.3221C66.9153 21.1222 67.3963 20.6412 67.3963 20.048C67.3963 19.4548 66.9153 18.9738 66.3221 18.9738H61.2185C60.0338 18.9738 59.07 19.9375 59.07 21.1222V27.1092C57.3779 27.4575 55.9251 28.469 54.9996 29.861C53.8439 28.1222 51.8682 26.9732 49.6287 26.9732H22.1287C20.3517 26.9732 18.9061 28.4189 18.9061 30.1959V31.6538H16.1036C13.7343 31.6538 11.8068 33.5814 11.8068 35.9507V79.767C11.8068 82.1363 13.7343 84.0639 16.1036 84.0639H42.1399V88.0381C42.1399 88.8364 42.5784 89.5641 43.2839 89.9373C43.9901 90.3105 44.8383 90.2632 45.4979 89.8135L47.7533 88.277L50.0088 89.8135C50.3729 90.0617 50.7945 90.1871 51.2179 90.1871C51.5617 90.1871 51.9065 90.1044 52.2227 89.9371C52.9285 89.5639 53.3668 88.8362 53.3668 88.0378V84.0639H93.8962C96.2655 84.0639 98.1931 82.1363 98.1931 79.767V35.9507C98.1929 33.5816 96.2653 31.6538 93.896 31.6538ZM56.074 33.4188C56.074 31.5037 57.3356 29.8835 59.0698 29.3314V41.2754C59.0698 42.46 60.0336 43.4238 61.2183 43.4238H83.7927C84.9774 43.4238 85.9412 42.46 85.9412 41.2754V29.1217H87.8707C88.463 29.1217 88.9449 29.6036 88.9449 30.1959V74.1138C88.9449 74.7062 88.463 75.188 87.8707 75.188H57.1482C56.5559 75.188 56.074 74.7062 56.074 74.1138V33.4188ZM16.1036 81.9154C14.919 81.9154 13.9552 80.9517 13.9552 79.767V35.9507C13.9552 34.7661 14.919 33.8023 16.1036 33.8023H18.9061V43.9783C18.9061 44.5715 19.3871 45.0526 19.9803 45.0526C20.5735 45.0526 21.0545 44.5715 21.0545 43.9783V30.1961C21.0545 29.6038 21.5364 29.1219 22.1287 29.1219H49.6285C51.9978 29.1219 53.9254 31.0495 53.9254 33.4188V74.114C53.9254 74.7064 53.4435 75.1883 52.8512 75.1883H22.1287C21.5364 75.1883 21.0545 74.7064 21.0545 74.114V50.5526C21.0545 49.9594 20.5735 49.4783 19.9803 49.4783C19.3871 49.4783 18.9061 49.9594 18.9061 50.5526V74.1138C18.9061 75.8908 20.3517 77.3365 22.1287 77.3365H42.1399V81.9152H16.1036V81.9154ZM51.2181 88.0378L48.3579 86.0894C47.9931 85.8409 47.5131 85.8409 47.1483 86.0894L44.2881 88.0381V77.3367H51.219L51.2237 88.0413C51.2239 88.0413 51.222 88.0404 51.2181 88.0378ZM96.0444 79.767C96.0444 80.9517 95.0806 81.9154 93.896 81.9154H53.3666V77.2916C53.9885 77.1908 54.5504 76.9126 54.9998 76.5091C55.5707 77.0217 56.3226 77.3367 57.1485 77.3367H87.8709C89.6479 77.3367 91.0936 75.891 91.0936 74.114V33.8023H93.8962C95.0808 33.8023 96.0446 34.7661 96.0446 35.9507L96.0444 79.767Z" fill="#1B62AD"/>
<path d="M69.6239 30.8427V36.067C69.6239 36.5646 70.1638 36.8744 70.5935 36.6237L75.0676 34.0114C75.4937 33.7626 75.4937 33.1469 75.0676 32.8981L70.5935 30.2858C70.1636 30.0351 69.6239 30.3451 69.6239 30.8427Z" fill="white"/>
<path d="M48.8174 35.6032H34.9557C34.3623 35.6032 33.8815 35.1221 33.8815 34.5289C33.8815 33.9357 34.3623 33.4547 34.9557 33.4547H48.8174C49.4108 33.4547 49.8916 33.9357 49.8916 34.5289C49.8916 35.1221 49.4108 35.6032 48.8174 35.6032Z" fill="#1B62AD"/>
<path d="M48.8174 39.7931H34.9557C34.3623 39.7931 33.8815 39.3121 33.8815 38.7189C33.8815 38.1257 34.3623 37.6447 34.9557 37.6447H48.8174C49.4108 37.6447 49.8916 38.1257 49.8916 38.7189C49.8916 39.3121 49.4108 39.7931 48.8174 39.7931Z" fill="#1B62AD"/>
<path d="M48.8174 43.9834H34.9557C34.3623 43.9834 33.8815 43.5024 33.8815 42.9092C33.8815 42.316 34.3623 41.835 34.9557 41.835H48.8174C49.4108 41.835 49.8916 42.316 49.8916 42.9092C49.8916 43.5024 49.4108 43.9834 48.8174 43.9834Z" fill="#1B62AD"/>
<path d="M48.8174 48.1731H34.9557C34.3623 48.1731 33.8815 47.6921 33.8815 47.0989C33.8815 46.5057 34.3623 46.0247 34.9557 46.0247H48.8174C49.4108 46.0247 49.8916 46.5057 49.8916 47.0989C49.8916 47.6921 49.4108 48.1731 48.8174 48.1731Z" fill="#1B62AD"/>
<path d="M48.8174 52.3634H34.9557C34.3623 52.3634 33.8815 51.8824 33.8815 51.2892C33.8815 50.696 34.3623 50.215 34.9557 50.215H48.8174C49.4108 50.215 49.8916 50.696 49.8916 51.2892C49.8916 51.8824 49.4108 52.3634 48.8174 52.3634Z" fill="#1B62AD"/>
<path d="M48.8173 56.5533H25.9208C25.3274 56.5533 24.8466 56.0723 24.8466 55.4791C24.8466 54.8859 25.3274 54.4049 25.9208 54.4049H48.8173C49.4107 54.4049 49.8916 54.8859 49.8916 55.4791C49.8916 56.0723 49.4107 56.5533 48.8173 56.5533Z" fill="#1B62AD"/>
<path d="M48.8173 60.7433H25.9208C25.3274 60.7433 24.8466 60.2623 24.8466 59.6691C24.8466 59.0759 25.3274 58.5948 25.9208 58.5948H48.8173C49.4107 58.5948 49.8916 59.0759 49.8916 59.6691C49.8916 60.2623 49.4107 60.7433 48.8173 60.7433Z" fill="#1B62AD"/>
<path d="M84.7715 49.2477H70.9098C70.3164 49.2477 69.8356 48.7666 69.8356 48.1735C69.8356 47.5803 70.3164 47.0992 70.9098 47.0992H84.7715C85.3649 47.0992 85.8457 47.5803 85.8457 48.1735C85.8457 48.7666 85.3649 49.2477 84.7715 49.2477Z" fill="#1B62AD"/>
<path d="M84.7715 53.4376H70.9098C70.3164 53.4376 69.8356 52.9566 69.8356 52.3634C69.8356 51.7702 70.3164 51.2892 70.9098 51.2892H84.7715C85.3649 51.2892 85.8457 51.7702 85.8457 52.3634C85.8457 52.9566 85.3649 53.4376 84.7715 53.4376Z" fill="#1B62AD"/>
<path d="M84.7715 57.6279H70.9098C70.3164 57.6279 69.8356 57.1469 69.8356 56.5537C69.8356 55.9605 70.3164 55.4795 70.9098 55.4795H84.7715C85.3649 55.4795 85.8457 55.9605 85.8457 56.5537C85.8457 57.1469 85.3649 57.6279 84.7715 57.6279Z" fill="#1B62AD"/>
<path d="M84.7715 61.8179H70.9098C70.3164 61.8179 69.8356 61.3368 69.8356 60.7437C69.8356 60.1505 70.3164 59.6694 70.9098 59.6694H84.7715C85.3649 59.6694 85.8457 60.1505 85.8457 60.7437C85.8457 61.3368 85.3649 61.8179 84.7715 61.8179Z" fill="#1B62AD"/>
<path d="M84.7715 66.0078H70.9098C70.3164 66.0078 69.8356 65.5268 69.8356 64.9336C69.8356 64.3404 70.3164 63.8594 70.9098 63.8594H84.7715C85.3649 63.8594 85.8457 64.3404 85.8457 64.9336C85.8457 65.5268 85.3649 66.0078 84.7715 66.0078Z" fill="#1B62AD"/>
<path d="M84.7715 70.1979H70.9098C70.3164 70.1979 69.8356 69.7168 69.8356 69.1237C69.8356 68.5305 70.3164 68.0494 70.9098 68.0494H84.7715C85.3649 68.0494 85.8457 68.5305 85.8457 69.1237C85.8457 69.7168 85.3649 70.1979 84.7715 70.1979Z" fill="#1B62AD"/>
<path d="M66.3867 70.2538H61.2184C60.6252 70.2538 60.1442 69.7728 60.1442 69.1796V48.1735C60.1442 47.5803 60.6252 47.0992 61.2184 47.0992H66.3867C66.9799 47.0992 67.4609 47.5803 67.4609 48.1735V69.1796C67.4609 69.7728 66.9799 70.2538 66.3867 70.2538Z" fill="#6583FE"/>
<path d="M64.3097 24.5281C64.725 24.5281 65.0616 24.1914 65.0616 23.7761C65.0616 23.3608 64.725 23.0242 64.3097 23.0242C63.8944 23.0242 63.5577 23.3608 63.5577 23.7761C63.5577 24.1914 63.8944 24.5281 64.3097 24.5281Z" fill="#1B62AD"/>
<path d="M66.7089 24.5281C67.1242 24.5281 67.4608 24.1914 67.4608 23.7761C67.4608 23.3608 67.1242 23.0242 66.7089 23.0242C66.2936 23.0242 65.9569 23.3608 65.9569 23.7761C65.9569 24.1914 66.2936 24.5281 66.7089 24.5281Z" fill="#1B62AD"/>
<path d="M69.108 24.5281C69.5233 24.5281 69.86 24.1914 69.86 23.7761C69.86 23.3608 69.5233 23.0242 69.108 23.0242C68.6927 23.0242 68.3561 23.3608 68.3561 23.7761C68.3561 24.1914 68.6927 24.5281 69.108 24.5281Z" fill="#1B62AD"/>
</svg>
