<svg width="110" height="110" viewBox="0 0 110 110" fill="none" xmlns="http://www.w3.org/2000/svg">
<path opacity="0.1" d="M73.0048 39.9506H84.5681C86.4252 39.9506 87.9306 38.4452 87.9306 36.5881C87.9306 34.7312 86.4252 33.2258 84.5683 33.2258H72.993C72.8696 31.2028 71.1846 29.5287 69.1369 29.5672C67.12 29.605 65.4921 31.2172 65.4206 33.2258H65.4137V30.9272C65.4137 28.8309 63.7143 27.1315 61.618 27.1315C59.5218 27.1315 57.8224 28.8309 57.8224 30.9272V29.4512C57.8224 27.3236 56.0813 25.517 53.9544 25.5567C51.8916 25.5954 50.2313 27.2795 50.2313 29.3517V19.3535C50.2313 17.3033 48.6469 15.5484 46.5983 15.4619C45.5776 15.4189 44.6437 15.7818 43.9386 16.3992C41.7362 14.3971 38.7877 13.2013 35.5594 13.2778C29.1064 13.4307 23.8739 18.7539 23.8255 25.2085C23.8008 28.5117 25.1097 31.5079 27.2437 33.6956C27.1732 33.7281 27.1028 33.7605 27.0336 33.7962L23.4695 35.6335C22.6935 36.0336 22.6935 37.143 23.4695 37.5431L27.0336 39.3804C27.7606 39.7551 28.5667 39.9508 29.3846 39.9508H35.0492V51.4875C35.0492 57.2043 38.3361 62.1504 43.1215 64.5478L42.3627 80.2248H23.1436C22.5504 80.2248 22.0694 80.7058 22.0694 81.299V101.452C22.0694 102.046 22.5504 102.527 23.1436 102.527H45.7181C46.2965 102.527 46.7648 102.068 46.788 101.496H65.5935C66.2071 101.496 66.6961 100.982 66.6665 100.369L65.9534 85.6352H85.7807C86.9688 85.6352 87.9291 84.6727 87.9291 83.4867V58.9129C87.9291 57.727 86.9688 56.7645 85.7807 56.7645H72.0178C72.6529 55.1272 73.005 53.3489 73.005 51.4873L73.0048 39.9506Z" fill="#1B62AD"/>
<path d="M35.8516 31.5266C42.4937 31.5266 47.8781 26.1421 47.8781 19.5C47.8781 12.858 42.4937 7.47351 35.8516 7.47351C29.2095 7.47351 23.8251 12.858 23.8251 19.5C23.8251 26.1421 29.2095 31.5266 35.8516 31.5266Z" fill="white"/>
<path d="M39.4208 18.2524C39.4208 16.2842 37.8196 14.6832 35.8516 14.6832C33.8836 14.6832 32.2824 16.2845 32.2824 18.2524C32.2824 19.2231 32.673 20.1033 33.304 20.7474C32.6732 21.3915 32.2824 22.2717 32.2824 23.2424C32.2824 23.8356 32.7632 24.3166 33.3566 24.3166C33.95 24.3166 34.4308 23.8356 34.4308 23.2424C34.4308 22.4591 35.0683 21.8216 35.8516 21.8216C36.6349 21.8216 37.2724 22.4591 37.2724 23.2424C37.2724 23.8356 37.7532 24.3166 38.3466 24.3166C38.94 24.3166 39.4208 23.8356 39.4208 23.2424C39.4208 22.2717 39.0302 21.3915 38.3992 20.7474C39.0302 20.1035 39.4208 19.2231 39.4208 18.2524ZM35.8516 16.8317C36.6349 16.8317 37.2724 17.4691 37.2724 18.2524C37.2724 19.0357 36.6349 19.6732 35.8516 19.6732C35.0683 19.6732 34.4308 19.0357 34.4308 18.2524C34.4308 17.4691 35.0681 16.8317 35.8516 16.8317Z" fill="#1B62AD"/>
<path d="M66.7208 95.6947L64.7477 54.9259H43.3063L41.3331 95.6947H66.7208Z" fill="white"/>
<path d="M87.9306 30.7883C87.9306 32.6454 86.4252 34.1508 84.5681 34.1508H29.3846C28.5667 34.1508 27.7606 33.9553 27.0336 33.5804L23.4695 31.7431C22.6935 31.343 22.6935 30.2336 23.4695 29.8335L27.0336 27.9962C27.7606 27.6215 28.5667 27.4258 29.3846 27.4258H84.5683C86.4252 27.4258 87.9306 28.9312 87.9306 30.7883Z" fill="white"/>
<path d="M36.9622 27.4248V34.1496H33.9303V27.4248H36.9622Z" fill="#6583FE"/>
<path d="M80.3 34.1498H84.5681C86.4252 34.1498 87.9307 32.6444 87.9307 30.7873C87.9307 28.9302 86.4252 27.4248 84.5681 27.4248H80.3V34.1498Z" fill="#6583FE"/>
<path d="M35.0492 34.1498V45.6865C35.0492 53.7513 41.5871 60.2892 49.6519 60.2892H58.4023C66.4671 60.2892 73.005 53.7513 73.005 45.6865V27.6607C73.005 25.5333 71.2641 23.7265 69.1369 23.7664C67.0742 23.8051 65.4139 25.4893 65.4139 27.5612V25.1264C65.4139 23.0301 63.7145 21.3307 61.6183 21.3307C59.522 21.3307 57.8226 23.0301 57.8226 25.1264V23.5509C57.8226 21.4547 56.1232 19.7553 54.027 19.7553C51.9308 19.7553 50.2313 21.4547 50.2313 23.5509V13.5527C50.2313 11.4254 48.4905 9.61853 46.3633 9.65849C44.3006 9.69716 42.6403 11.3813 42.6403 13.4535V34.15L35.0492 34.1498Z" fill="white"/>
<path d="M45.7181 96.7257H23.1436C22.5504 96.7257 22.0694 96.2446 22.0694 95.6515V75.498C22.0694 74.9049 22.5504 74.4238 23.1436 74.4238H45.7181C46.3113 74.4238 46.7923 74.9049 46.7923 75.498V95.6515C46.7923 96.2446 46.3113 96.7257 45.7181 96.7257Z" fill="#6583FE"/>
<path d="M46.7923 80.5866V75.498C46.7923 74.9049 46.3113 74.4238 45.7181 74.4238H23.1436C22.5504 74.4238 22.0694 74.9049 22.0694 75.498V80.5866H46.7923Z" fill="white"/>
<path d="M31.5491 85.2184V90.4428C31.5491 90.9404 32.089 91.2502 32.5187 90.9994L36.9928 88.3872C37.4189 88.1384 37.4189 87.5226 36.9928 87.2738L32.5187 84.6616C32.089 84.4108 31.5491 84.7209 31.5491 85.2184Z" fill="white"/>
<path d="M26.235 78.9037C26.6503 78.9037 26.987 78.567 26.987 78.1517C26.987 77.7364 26.6503 77.3998 26.235 77.3998C25.8198 77.3998 25.4831 77.7364 25.4831 78.1517C25.4831 78.567 25.8198 78.9037 26.235 78.9037Z" fill="#1B62AD"/>
<path d="M28.634 78.9037C29.0493 78.9037 29.3859 78.567 29.3859 78.1517C29.3859 77.7364 29.0493 77.3998 28.634 77.3998C28.2187 77.3998 27.882 77.7364 27.882 78.1517C27.882 78.567 28.2187 78.9037 28.634 78.9037Z" fill="#1B62AD"/>
<path d="M31.0331 78.9037C31.4484 78.9037 31.7851 78.567 31.7851 78.1517C31.7851 77.7364 31.4484 77.3998 31.0331 77.3998C30.6178 77.3998 30.2812 77.7364 30.2812 78.1517C30.2812 78.567 30.6178 78.9037 31.0331 78.9037Z" fill="#1B62AD"/>
<path d="M60.2291 79.8344H85.7804C86.9685 79.8344 87.9289 78.8719 87.9289 77.686V53.1121C87.9289 51.9262 86.9685 50.9637 85.7804 50.9637H70.9627L69.4235 47.854C69.1023 47.205 68.4408 46.7944 67.7168 46.7944C66.9926 46.7944 66.3308 47.2054 66.0099 47.8547L64.4722 50.9639H60.2291C59.0425 50.9639 58.0806 51.9258 58.0806 53.1123V77.6862C58.0806 78.8725 59.0427 79.8344 60.2291 79.8344Z" fill="white"/>
<path d="M85.7805 49.8895H73.4996C73.8738 48.551 74.0792 47.1429 74.0792 45.6865V28.4992H84.5683C85.8301 28.4992 86.8564 29.5255 86.8564 30.7873C86.8564 32.0491 85.8301 33.0754 84.5683 33.0754H80.3C79.7066 33.0754 79.2258 33.5562 79.2258 34.1496C79.2258 34.743 79.7066 35.2238 80.3 35.2238H84.5683C87.0147 35.2238 89.0048 33.2335 89.0048 30.7873C89.0048 28.3411 87.0145 26.3508 84.5683 26.3508H73.8998C73.6661 25.5004 73.2104 24.7119 72.5721 24.0852C71.6321 23.1629 70.4118 22.6677 69.1165 22.6924C68.0513 22.7124 67.0665 23.0815 66.2711 23.6882C65.6565 21.7028 63.803 20.2567 61.6183 20.2567C60.3962 20.2567 59.2782 20.709 58.4223 21.4549C57.6376 19.8159 55.9623 18.6811 54.027 18.6811C53.0198 18.6811 52.0831 18.9885 51.3056 19.5142V13.5527C51.3056 12.2205 50.7562 10.917 49.7984 9.97708C48.8585 9.05476 47.6341 8.55783 46.3429 8.58425C45.4891 8.60037 44.6875 8.84185 43.9931 9.24919C41.7558 7.46771 38.9271 6.39929 35.8514 6.39929C28.6277 6.39929 22.7507 12.2761 22.7507 19.5C22.7507 22.5379 23.7933 25.3345 25.5353 27.559L22.9767 28.878C22.2589 29.2484 21.8129 29.9799 21.8129 30.7877C21.8129 31.5955 22.2589 32.3271 22.9769 32.6975L26.5409 34.5348C27.4164 34.986 28.3996 35.2244 29.3842 35.2244H33.9745V45.6869C33.9745 51.5601 37.2228 56.6863 42.0153 59.3712L41.3387 73.35H23.1432C21.9585 73.35 20.9948 74.3138 20.9948 75.4984V95.6518C20.9948 96.8365 21.9585 97.8003 23.1432 97.8003H45.7177C46.9023 97.8003 47.8661 96.8365 47.8661 95.6518V75.4984C47.8661 74.3138 46.9023 73.35 45.7177 73.35H43.4898L44.1188 60.3526C45.8404 61.0042 47.7043 61.3638 49.6515 61.3638H57.0062V65.4631C57.0062 66.0565 57.487 66.5373 58.0804 66.5373C58.6738 66.5373 59.1547 66.0565 59.1547 65.4631V53.1126C59.1547 52.5202 59.6366 52.0383 60.2289 52.0383H64.472C64.8805 52.0383 65.2539 51.8065 65.435 51.4404L66.9724 48.331C67.1131 48.0461 67.3982 47.8691 67.7164 47.8691C68.0341 47.8691 68.3195 48.0461 68.4604 48.3308L69.9995 51.4406C70.1809 51.8067 70.5538 52.0383 70.9623 52.0383H85.78C86.3724 52.0383 86.8542 52.5202 86.8542 53.1126V77.6864C86.8542 78.2787 86.3724 78.7606 85.78 78.7606H60.2293C59.637 78.7606 59.1551 78.2787 59.1551 77.6864V72.0377C59.1551 71.4443 58.6743 70.9635 58.0809 70.9635C57.4875 70.9635 57.0066 71.4443 57.0066 72.0377V77.6864C57.0066 79.4634 58.4523 80.909 60.2293 80.909H64.9299L65.6479 95.747C65.6758 96.3219 66.1506 96.7692 66.72 96.7692C66.7374 96.7692 66.755 96.7688 66.7728 96.7679C67.3653 96.7392 67.8225 96.2356 67.7937 95.6432L67.0807 80.909H85.7805C87.5574 80.909 89.0031 79.4634 89.0031 77.6864V53.1126C89.0031 51.3349 87.5577 49.8895 85.7805 49.8895ZM45.7194 95.6514H23.1436V75.498H45.7181L45.7194 95.6514ZM35.8516 8.54773C38.3086 8.54773 40.576 9.36478 42.4046 10.7368C41.8761 11.5156 41.566 12.4517 41.566 13.4533V26.3508H29.3846C28.7637 26.3508 28.1437 26.4459 27.5505 26.6292C25.9009 24.7117 24.8993 22.2219 24.8993 19.4998C24.8993 13.4608 29.8126 8.54773 35.8516 8.54773ZM27.5258 32.6246L23.9617 30.7873L27.5256 28.9499C28.0979 28.655 28.7407 28.499 29.3846 28.499H41.566V33.0754H35.0492H29.3846C28.7407 33.0756 28.0979 32.9196 27.5258 32.6246ZM70.3865 47.3773C69.8805 46.3551 68.8576 45.72 67.7168 45.72C66.5756 45.72 65.5525 46.3555 65.0467 47.3782L63.8052 49.8893H60.2293C58.4523 49.8893 57.0066 51.3349 57.0066 53.1119V59.2148H49.6519C47.4755 59.2148 45.4195 58.6953 43.5961 57.7781C43.5912 57.7757 43.5864 57.7729 43.5815 57.7706C39.1628 55.5418 36.1234 50.9635 36.1234 45.6861V35.2236H41.566V43.9961C41.566 44.5895 42.0471 45.0703 42.6403 45.0703C43.2334 45.0703 43.7145 44.5895 43.7145 43.9961V34.1494V13.4533C43.7145 11.9807 44.9118 10.76 46.3835 10.7323C47.0899 10.7275 47.769 10.9957 48.2937 11.5104C48.8426 12.0493 49.1573 12.7935 49.1573 13.5527V23.5509V34.0067C49.1573 34.6001 49.6384 35.0809 50.2315 35.0809C50.8247 35.0809 51.3058 34.6001 51.3058 34.0067V23.5509C51.3058 22.0504 52.5265 20.8295 54.0272 20.8295C55.5277 20.8295 56.7486 22.0504 56.7486 23.5509V25.1264V34.0067C56.7486 34.6001 57.2294 35.0809 57.8228 35.0809C58.4162 35.0809 58.8971 34.6001 58.8971 34.0067V25.1264C58.8971 23.6259 60.118 22.4052 61.6185 22.4052C63.119 22.4052 64.3397 23.6259 64.3397 25.1264V27.5614V34.0067C64.3397 34.6001 64.8205 35.0809 65.4139 35.0809C66.0073 35.0809 66.4881 34.6001 66.4881 34.0067V27.5614C66.4881 26.0886 67.6855 24.8679 69.1571 24.8404C69.8562 24.832 70.5424 25.1036 71.0675 25.6188C71.6165 26.1574 71.9312 26.9016 71.9312 27.6609V45.6865C71.9312 46.9841 71.7449 48.2384 71.4014 49.4271L70.3865 47.3773Z" fill="#1B62AD"/>
<path d="M82.5522 75.4982C82.1361 75.4982 81.7401 75.255 81.565 74.8487L78.5944 67.9479L75.6237 74.8487C75.3891 75.3936 74.7568 75.6451 74.2122 75.4105C73.6674 75.1759 73.4158 74.5441 73.6504 73.999L77.6078 64.8065C77.7775 64.4125 78.1656 64.1572 78.5946 64.1572C79.0236 64.1572 79.4117 64.4125 79.5814 64.8065L83.5388 73.999C83.7734 74.5441 83.5218 75.1761 82.977 75.4105C82.8382 75.47 82.694 75.4982 82.5522 75.4982Z" fill="#1B62AD"/>
<path d="M80.3888 72.5667H75.8992C75.3058 72.5667 74.825 72.0858 74.825 71.4924C74.825 70.899 75.3058 70.4182 75.8992 70.4182H80.3888C80.9822 70.4182 81.463 70.899 81.463 71.4924C81.463 72.0858 80.9822 72.5667 80.3888 72.5667Z" fill="#1B62AD"/>
<path d="M82.1107 60.1886H64.1139C63.5207 60.1886 63.0397 59.7076 63.0397 59.1144V56.6626C63.0397 56.0694 63.5207 55.5884 64.1139 55.5884H82.1107C82.7039 55.5884 83.1849 56.0694 83.1849 56.6626V59.1144C83.1849 59.7076 82.7039 60.1886 82.1107 60.1886Z" fill="#6583FE"/>
<path d="M26.6782 58.7074H26.0336V58.0629C26.0336 57.4695 25.5526 56.9886 24.9594 56.9886C24.3662 56.9886 23.8852 57.4695 23.8852 58.0629V58.7074H23.2407C22.6475 58.7074 22.1664 59.1882 22.1664 59.7816C22.1664 60.375 22.6475 60.8558 23.2407 60.8558H23.8852V61.5004C23.8852 62.0938 24.3662 62.5746 24.9594 62.5746C25.5526 62.5746 26.0336 62.0938 26.0336 61.5004V60.8558H26.6782C27.2713 60.8558 27.7524 60.375 27.7524 59.7816C27.7524 59.1882 27.2713 58.7074 26.6782 58.7074Z" fill="#6583FE"/>
<path d="M68.8511 12.2001H68.2066V11.5555C68.2066 10.9621 67.7258 10.4813 67.1324 10.4813C66.539 10.4813 66.0582 10.9621 66.0582 11.5555V12.2001H65.4136C64.8202 12.2001 64.3394 12.6809 64.3394 13.2743C64.3394 13.8677 64.8202 14.3485 65.4136 14.3485H66.0582V14.993C66.0582 15.5864 66.539 16.0673 67.1324 16.0673C67.7258 16.0673 68.2066 15.5864 68.2066 14.993V14.3485H68.8511C69.4445 14.3485 69.9254 13.8677 69.9254 13.2743C69.9254 12.6809 69.4443 12.2001 68.8511 12.2001Z" fill="#6583FE"/>
<path d="M81.6303 95.6514H80.9858V95.0068C80.9858 94.4134 80.505 93.9326 79.9116 93.9326C79.3182 93.9326 78.8373 94.4134 78.8373 95.0068V95.6514H78.1928C77.5994 95.6514 77.1186 96.1322 77.1186 96.7256C77.1186 97.319 77.5994 97.7998 78.1928 97.7998H78.8373V98.4443C78.8373 99.0377 79.3182 99.5186 79.9116 99.5186C80.505 99.5186 80.9858 99.0377 80.9858 98.4443V97.7998H81.6303C82.2237 97.7998 82.7045 97.319 82.7045 96.7256C82.7045 96.1322 82.2237 95.6514 81.6303 95.6514Z" fill="#6583FE"/>
<path d="M22.2361 51.0517C21.9611 51.0517 21.6863 50.9469 21.4764 50.737L20.5173 49.7779L19.5583 50.737C19.1387 51.1565 18.4587 51.1565 18.0391 50.737C17.6195 50.3176 17.6195 49.6374 18.0391 49.218L19.7579 47.4993C20.1775 47.0797 20.8574 47.0797 21.277 47.4993L22.9958 49.218C23.4154 49.6374 23.4154 50.3176 22.9958 50.737C22.7861 50.9469 22.5111 51.0517 22.2361 51.0517Z" fill="#6583FE"/>
<path d="M92.0433 44.5362C91.7686 44.5362 91.4933 44.4314 91.2839 44.2215L90.3246 43.2624L89.3653 44.2215C88.9461 44.641 88.2655 44.641 87.8464 44.2215C87.4268 43.8021 87.4268 43.1219 87.8464 42.7025L89.5651 40.9838C89.9843 40.5642 90.6649 40.5642 91.0841 40.9838L92.8028 42.7025C93.2224 43.1219 93.2224 43.8021 92.8028 44.2215C92.5931 44.4314 92.3181 44.5362 92.0433 44.5362Z" fill="#6583FE"/>
</svg>
