<svg width="110" height="110" viewBox="0 0 110 110" fill="none" xmlns="http://www.w3.org/2000/svg">
<path opacity="0.1" d="M93.8962 26.4778H16.1039C14.3241 26.4778 12.8812 27.9207 12.8812 29.7004V74.8056C12.8812 76.5854 14.3241 78.0283 16.1039 78.0283H40.0549V80.43C40.0549 81.6166 41.0167 82.5784 42.2033 82.5784H46.6899V94.6097H38.2352C37.0254 94.6097 36.0446 95.5904 36.0446 96.8002C36.0446 98.01 37.0254 98.991 38.2352 98.991H71.7647C72.9745 98.991 73.9553 98.0102 73.9553 96.8002C73.9553 95.5902 72.9745 94.6097 71.7647 94.6097H63.3102V82.5784H67.7968C68.9834 82.5784 69.9452 81.6166 69.9452 80.43V78.0283H93.8962C95.676 78.0283 97.1189 76.5854 97.1189 74.8056V29.7004C97.1189 27.9207 95.676 26.4778 93.8962 26.4778Z" fill="#1B62AD"/>
<path d="M24.9231 83.4351H24.2786V82.7905C24.2786 82.1973 23.7977 81.7163 23.2043 81.7163C22.6109 81.7163 22.1301 82.1973 22.1301 82.7905V83.4351H21.4856C20.8922 83.4351 20.4114 83.9161 20.4114 84.5093C20.4114 85.1025 20.8922 85.5835 21.4856 85.5835H22.1301V86.228C22.1301 86.8212 22.6109 87.3022 23.2043 87.3022C23.7977 87.3022 24.2786 86.8212 24.2786 86.228V85.5835H24.9231C25.5165 85.5835 25.9973 85.1025 25.9973 84.5093C25.9973 83.9161 25.5165 83.4351 24.9231 83.4351Z" fill="#6583FE"/>
<path d="M21.4856 10.3555H20.8411V9.71094C20.8411 9.11775 20.3602 8.63672 19.7668 8.63672C19.1734 8.63672 18.6926 9.11775 18.6926 9.71094V10.3555H18.0481C17.4547 10.3555 16.9739 10.8365 16.9739 11.4297C16.9739 12.0229 17.4547 12.5039 18.0481 12.5039H18.6926V13.1484C18.6926 13.7416 19.1734 14.2227 19.7668 14.2227C20.3602 14.2227 20.8411 13.7416 20.8411 13.1484V12.5039H21.4856C22.079 12.5039 22.5598 12.0229 22.5598 11.4297C22.5598 10.8365 22.079 10.3555 21.4856 10.3555Z" fill="#6583FE"/>
<path d="M32.7032 12.0742H32.0587V11.4297C32.0587 10.8365 31.5779 10.3555 30.9845 10.3555C30.3911 10.3555 29.9103 10.8365 29.9103 11.4297V12.0742H29.2657C28.6723 12.0742 28.1915 12.5553 28.1915 13.1484C28.1915 13.7416 28.6723 14.2227 29.2657 14.2227H29.9103V14.8672C29.9103 15.4604 30.3911 15.9414 30.9845 15.9414C31.5779 15.9414 32.0587 15.4604 32.0587 14.8672V14.2227H32.7032C33.2966 14.2227 33.7775 13.7416 33.7775 13.1484C33.7775 12.5553 33.2964 12.0742 32.7032 12.0742Z" fill="#6583FE"/>
<path d="M30.9844 80.4985C30.7097 80.4985 30.4344 80.3937 30.225 80.184L29.2657 79.225L28.3064 80.184C27.8873 80.6034 27.2066 80.6034 26.7875 80.184C26.3679 79.7644 26.3679 79.0842 26.7875 78.6649L28.5062 76.9461C28.9254 76.5267 29.606 76.5267 30.0252 76.9461L31.7439 78.6649C32.1635 79.0845 32.1635 79.7646 31.7439 80.184C31.5342 80.3935 31.2592 80.4985 30.9844 80.4985Z" fill="#6583FE"/>
<path d="M90.5655 86.4429C90.2907 86.4429 90.0155 86.338 89.806 86.1284L88.8467 85.1693L87.8875 86.1284C87.4683 86.5477 86.7877 86.5477 86.3685 86.1284C85.9489 85.7088 85.9489 85.0286 86.3685 84.6092L88.0873 82.8905C88.5064 82.4711 89.1871 82.4711 89.6062 82.8905L91.325 84.6092C91.7446 85.0288 91.7446 85.709 91.325 86.1284C91.1155 86.3378 90.8403 86.4429 90.5655 86.4429Z" fill="#6583FE"/>
<path d="M46.6899 70.3903H63.3103V91.6727H46.6899V70.3903Z" fill="white"/>
<path d="M67.7969 76.7776H42.2034C41.0168 76.7776 40.0549 75.8158 40.0549 74.6292V69.7634H69.9451V74.6292C69.9453 75.8158 68.9832 76.7776 67.7969 76.7776Z" fill="white"/>
<path d="M93.8962 72.2275H16.1039C14.3241 72.2275 12.8812 70.7846 12.8812 69.0048V23.8997C12.8812 22.1199 14.3241 20.677 16.1039 20.677H93.8962C95.676 20.677 97.1189 22.1199 97.1189 23.8997V69.0048C97.1189 70.7846 95.676 72.2275 93.8962 72.2275Z" fill="#6583FE"/>
<path d="M97.1185 63.5486H12.8812V23.8997C12.8812 22.1199 14.3241 20.677 16.1039 20.677H93.8958C95.6756 20.677 97.1185 22.1199 97.1185 23.8997V63.5486Z" fill="white"/>
<path d="M31.8812 34.8028L29.0212 32.8543L26.1612 34.8028C25.4481 35.2885 24.4822 34.7778 24.4822 33.915V20.677H33.5604V33.915C33.5602 34.7778 32.5942 35.2887 31.8812 34.8028Z" fill="#6583FE"/>
<path d="M67.4504 23.7549C67.4504 22.9361 68.1596 22.1001 69.578 21.2496C69.946 21.0375 70.3287 20.8474 70.7233 20.677H63.7145C60.8803 23.0459 59.4619 25.6315 59.4619 28.4339C59.4619 30.1059 59.9882 31.4753 61.0459 32.5478C62.1012 33.6177 63.4171 34.1537 64.9915 34.1537C66.4733 34.1537 67.6698 33.7053 68.5837 32.806C69.4976 31.9093 69.9557 30.7517 69.9557 29.3333C69.9557 28.3559 69.4974 27.2375 68.5837 25.9774C67.8283 24.9685 67.4504 24.2277 67.4504 23.7549ZM95.8102 56.7009C95.1156 55.692 94.7695 54.1176 94.7695 51.9731V27.7735C94.7695 25.0757 93.8313 22.7118 91.9548 20.677H81.8851C82.6454 21.0547 83.3473 21.5299 83.9932 22.1001C85.916 23.8036 86.8761 25.8507 86.8761 28.2464V34.9579C77.8957 35.9668 70.704 37.9919 65.2987 41.0309C59.8958 44.0722 57.1931 47.8936 57.1931 52.4947C57.1931 55.5507 58.375 58.0559 60.7389 60.008C63.1005 61.9624 66.5513 62.9398 71.089 62.9398C74.2717 62.9398 76.9987 62.411 79.2677 61.3557C81.5366 60.3004 84.1661 58.1973 87.1612 55.0462C88.2627 57.9756 89.5471 60.025 91.0117 61.1899C92.4788 62.3571 94.2822 62.9396 96.4242 62.9396C96.6582 62.9396 96.8898 62.9323 97.1188 62.9127V57.9339C96.6217 57.6759 96.1855 57.264 95.8102 56.7009ZM86.8759 44.4112C86.8759 48.6662 85.5136 52.2023 82.789 55.0219C80.0619 57.8439 76.8401 59.2526 73.1212 59.2526C71.0424 59.2526 69.3561 58.5679 68.0644 57.1957C66.7728 55.8261 66.127 53.9277 66.127 51.5004C66.127 48.035 67.3698 45.3567 69.8605 43.4655C73.1992 40.9774 78.8726 39.1813 86.8757 38.0772L86.8759 44.4112Z" fill="#6583FE"/>
<path d="M86.0536 37.0728H48.3442C47.7508 37.0728 47.27 36.5917 47.27 35.9985C47.27 35.4054 47.7508 34.9243 48.3442 34.9243H86.0536C86.647 34.9243 87.1278 35.4054 87.1278 35.9985C87.1278 36.5917 86.647 37.0728 86.0536 37.0728Z" fill="#1B62AD"/>
<path d="M86.0536 41.2628H48.3442C47.7508 41.2628 47.27 40.7818 47.27 40.1886C47.27 39.5954 47.7508 39.1144 48.3442 39.1144H86.0536C86.647 39.1144 87.1278 39.5954 87.1278 40.1886C87.1278 40.7818 86.647 41.2628 86.0536 41.2628Z" fill="#1B62AD"/>
<path d="M86.0536 45.453H48.3442C47.7508 45.453 47.27 44.972 47.27 44.3788C47.27 43.7856 47.7508 43.3046 48.3442 43.3046H86.0536C86.647 43.3046 87.1278 43.7856 87.1278 44.3788C87.1278 44.972 86.647 45.453 86.0536 45.453Z" fill="#1B62AD"/>
<path d="M86.0536 49.6428H48.3442C47.7508 49.6428 47.27 49.1618 47.27 48.5686C47.27 47.9754 47.7508 47.4944 48.3442 47.4944H86.0536C86.647 47.4944 87.1278 47.9754 87.1278 48.5686C87.1278 49.1618 86.647 49.6428 86.0536 49.6428Z" fill="#1B62AD"/>
<path d="M86.0536 53.8329H48.3442C47.7508 53.8329 47.27 53.3519 47.27 52.7587C47.27 52.1655 47.7508 51.6844 48.3442 51.6844H86.0536C86.647 51.6844 87.1278 52.1655 87.1278 52.7587C87.1278 53.3519 86.647 53.8329 86.0536 53.8329Z" fill="#1B62AD"/>
<path d="M86.0536 55.8745C86.647 55.8745 87.1278 56.3555 87.1278 56.9487C87.1278 57.5419 86.647 58.0229 86.0536 58.0229H48.3442C47.7508 58.0229 47.27 57.5419 47.27 56.9487C47.27 56.3555 47.7508 55.8745 48.3442 55.8745H86.0536Z" fill="#1B62AD"/>
<path d="M34.5852 46.7421H23.9462C23.3528 46.7421 22.8719 46.261 22.8719 45.6678C22.8719 45.0747 23.3528 44.5936 23.9462 44.5936H34.5852C35.1786 44.5936 35.6595 45.0747 35.6595 45.6678C35.6595 46.261 35.1784 46.7421 34.5852 46.7421Z" fill="#1B62AD"/>
<path d="M40.386 50.5023H23.9462C23.3528 50.5023 22.8719 50.0213 22.8719 49.4281C22.8719 48.8349 23.3528 48.3539 23.9462 48.3539H40.386C40.9794 48.3539 41.4602 48.8349 41.4602 49.4281C41.4602 50.0213 40.9792 50.5023 40.386 50.5023Z" fill="#1B62AD"/>
<path d="M40.386 54.2626H23.9462C23.3528 54.2626 22.8719 53.7815 22.8719 53.1884C22.8719 52.5952 23.3528 52.1141 23.9462 52.1141H40.386C40.9794 52.1141 41.4602 52.5952 41.4602 53.1884C41.4602 53.7815 40.9792 54.2626 40.386 54.2626Z" fill="#1B62AD"/>
<path d="M40.386 58.0229H23.9462C23.3528 58.0229 22.8719 57.5419 22.8719 56.9487C22.8719 56.3555 23.3528 55.8745 23.9462 55.8745H40.386C40.9794 55.8745 41.4602 56.3555 41.4602 56.9487C41.4602 57.5419 40.9792 58.0229 40.386 58.0229Z" fill="#1B62AD"/>
<path d="M24.2786 42.8639C24.8718 42.8639 25.3528 42.3829 25.3528 41.7897C25.3528 41.1964 24.8718 40.7155 24.2786 40.7155C23.6853 40.7155 23.2043 41.1964 23.2043 41.7897C23.2043 42.3829 23.6853 42.8639 24.2786 42.8639Z" fill="#1B62AD"/>
<path d="M27.7698 42.8639C28.3631 42.8639 28.844 42.3829 28.844 41.7897C28.844 41.1964 28.3631 40.7155 27.7698 40.7155C27.1765 40.7155 26.6956 41.1964 26.6956 41.7897C26.6956 42.3829 27.1765 42.8639 27.7698 42.8639Z" fill="#1B62AD"/>
<path d="M50.703 30.3065C50.4282 30.3065 50.1532 30.2016 49.9435 29.992L49.4496 29.4982L48.9561 29.9917C48.5365 30.4113 47.8565 30.4113 47.4369 29.9917C47.0173 29.5722 47.0173 28.8922 47.4367 28.4726L48.6899 27.2194C48.8914 27.0179 49.1647 26.9047 49.4496 26.9047C49.7344 26.9047 50.0077 27.0179 50.209 27.2192L51.4624 28.4724C51.882 28.892 51.882 29.5719 51.4627 29.9915C51.253 30.2016 50.9777 30.3065 50.703 30.3065Z" fill="#1B62AD"/>
<path d="M71.765 93.1902H38.2352C37.0254 93.1902 36.0447 92.2094 36.0447 90.9996C36.0447 89.7898 37.0254 88.8091 38.2352 88.8091H71.7648C72.9746 88.8091 73.9554 89.7898 73.9554 90.9996C73.9556 92.2094 72.9748 93.1902 71.765 93.1902Z" fill="white"/>
<path d="M93.8962 19.6028H16.1039C13.7346 19.6028 11.807 21.5304 11.807 23.8997V69.0048C11.807 71.3741 13.7346 73.3017 16.1039 73.3017H33.4807C34.0741 73.3017 34.5549 72.8207 34.5549 72.2275C34.5549 71.6343 34.0741 71.1533 33.4807 71.1533H16.1039C14.9192 71.1533 13.9554 70.1895 13.9554 69.0048V23.8997C13.9554 22.715 14.9192 21.7512 16.1039 21.7512H93.8962C95.0809 21.7512 96.0447 22.715 96.0447 23.8997V32.8067C96.0447 33.3998 96.5255 33.8809 97.1189 33.8809C97.7123 33.8809 98.1931 33.3998 98.1931 32.8067V23.8997C98.1931 21.5304 96.2655 19.6028 93.8962 19.6028Z" fill="#1B62AD"/>
<path d="M97.1189 38.3066C96.5255 38.3066 96.0447 38.7877 96.0447 39.3809V69.0048C96.0447 70.1895 95.0809 71.1532 93.8963 71.1532H40.0549C39.4615 71.1532 38.9807 71.6343 38.9807 72.2275V74.6292C38.9807 76.4062 40.4264 77.8518 42.2034 77.8518H45.6157V87.7347H38.2352C36.4348 87.7347 34.9702 89.1993 34.9702 90.9994C34.9702 92.7996 36.4348 94.2642 38.2352 94.2642H71.7646C73.565 94.2642 75.0295 92.7996 75.0295 90.9994C75.0295 89.1993 73.565 87.7347 71.7646 87.7347H64.3845V77.8518H67.7968C69.5738 77.8518 71.0195 76.4062 71.0195 74.6292V73.3017H93.8963C96.2656 73.3017 98.1931 71.3741 98.1931 69.0048V39.3809C98.1931 38.7877 97.7123 38.3066 97.1189 38.3066ZM72.8813 90.9994C72.8813 91.615 72.3805 92.1158 71.7648 92.1158H38.2354C37.6197 92.1158 37.1189 91.615 37.1189 90.9994C37.1189 90.3839 37.6197 89.8831 38.2354 89.8831H71.7648C72.3805 89.8831 72.8813 90.3839 72.8813 90.9994ZM62.236 87.7347H47.7642V77.8518H62.2358V87.7347H62.236ZM68.8708 74.6292C68.8708 75.2215 68.3889 75.7034 67.7966 75.7034H42.2034C41.611 75.7034 41.1291 75.2215 41.1291 74.6292V73.3017H68.8708V74.6292Z" fill="#1B62AD"/>
</svg>
