<svg width="110" height="110" viewBox="0 0 110 110" fill="none" xmlns="http://www.w3.org/2000/svg">
<g clip-path="url(#clip0)">
<path opacity="0.1" d="M93.067 39.0309H15.2764C13.4953 39.0309 12.0537 40.4725 12.0537 42.2535V86.0688C12.0537 87.8498 13.4953 89.2914 15.2764 89.2914H42.3854V94.3403C42.3854 95.2039 43.3521 95.7131 44.0654 95.2276L46.925 93.2789L49.7846 95.2276C50.4979 95.7131 51.4646 95.2039 51.4646 94.3403V89.2914H59.3159V92.6415C59.3159 93.2347 59.7969 93.7157 60.3901 93.7157H82.9646C83.5578 93.7157 84.0388 93.2347 84.0388 92.6415V89.2914H93.067C94.848 89.2914 96.2896 87.8498 96.2896 86.0688V42.2535C96.2896 40.4725 94.848 39.0309 93.067 39.0309Z" fill="#1B62AD"/>
<path d="M96.2896 36.4528V80.268C96.2896 82.0491 94.848 83.4907 93.067 83.4907H15.2764C13.4953 83.4907 12.0537 82.0491 12.0537 80.268V36.4528C12.0537 34.6718 13.4953 33.2302 15.2764 33.2302H93.067C94.848 33.2302 96.2896 34.6718 96.2896 36.4528Z" fill="#6583FE"/>
<path d="M96.2901 73.5232H12.0529V36.4523C12.0529 34.6726 13.4957 33.2297 15.2755 33.2297H93.0674C94.8472 33.2297 96.2901 34.6726 96.2901 36.4523V73.5232Z" fill="white"/>
<path d="M51.4647 75.3008V88.5395C51.4647 89.4031 50.4979 89.9123 49.7846 89.4268L46.925 87.4781L44.0655 89.4268C43.3522 89.9123 42.3854 89.4031 42.3854 88.5395V75.3008H51.4647Z" fill="white"/>
<path d="M54.1718 33.9197V74.6155C54.1718 75.8014 53.2093 76.7639 52.0233 76.7639H21.3007C20.1147 76.7639 19.1522 75.8014 19.1522 74.6155V30.6971C19.1522 29.5111 20.1147 28.5486 21.3007 28.5486H48.8007C51.7677 28.5486 54.1718 30.9527 54.1718 33.9197Z" fill="white"/>
<path d="M48.8919 62.4623H24.554C23.9606 62.4623 23.4797 61.9813 23.4797 61.3881C23.4797 60.7949 23.9606 60.3139 24.554 60.3139H48.8919C49.4853 60.3139 49.9661 60.7949 49.9661 61.3881C49.9661 61.9813 49.4853 62.4623 48.8919 62.4623Z" fill="#1B62AD"/>
<path d="M48.8919 66.6522H24.554C23.9606 66.6522 23.4797 66.1712 23.4797 65.578C23.4797 64.9848 23.9606 64.5038 24.554 64.5038H48.8919C49.4853 64.5038 49.9661 64.9848 49.9661 65.578C49.9661 66.1712 49.4853 66.6522 48.8919 66.6522Z" fill="#1B62AD"/>
<path d="M49.9662 69.7683C49.9662 70.3613 49.4849 70.8425 48.892 70.8425H24.5544C23.9615 70.8425 23.4802 70.3613 23.4802 69.7683C23.4802 69.1753 23.9615 68.6941 24.5544 68.6941H48.892C49.4849 68.6941 49.9662 69.1753 49.9662 69.7683Z" fill="#1B62AD"/>
<path d="M48.7694 57.1018H24.554C23.9608 57.1018 23.4797 56.6208 23.4797 56.0276V34.1873C23.4797 33.5941 23.9608 33.113 24.554 33.113H48.7694C49.3626 33.113 49.8436 33.5941 49.8436 34.1873V56.0274C49.8436 56.6208 49.3626 57.1018 48.7694 57.1018Z" fill="#6583FE"/>
<path d="M56.3202 76.7639H87.0426C88.2292 76.7639 89.1911 75.8021 89.1911 74.6155V30.6976C89.1911 29.511 88.2292 28.5491 87.0426 28.5491H59.5428C56.5765 28.5491 54.1718 30.9539 54.1718 33.9202V74.6155C54.1718 75.8021 55.1336 76.7639 56.3202 76.7639Z" fill="white"/>
<path d="M54.1718 60.3711V74.6154C54.1718 75.802 55.1336 76.7639 56.3202 76.7639H87.0426C88.2292 76.7639 89.1911 75.802 89.1911 74.6154V60.3711H54.1718Z" fill="#6583FE"/>
<path d="M84.8633 43.8282V34.1873C84.8633 33.5941 84.3823 33.113 83.7891 33.113H59.5736C58.9804 33.113 58.4994 33.5941 58.4994 34.1873V43.8282C58.4994 44.4213 58.9804 44.9024 59.5736 44.9024H83.7891C84.3823 44.9024 84.8633 44.4213 84.8633 43.8282Z" fill="#6583FE"/>
<path d="M92.6285 96.8481C92.3535 96.8481 92.0787 96.7433 91.8688 96.5336L90.9097 95.5745L89.9507 96.5336C89.5311 96.953 88.8511 96.953 88.4315 96.5336C88.0119 96.114 88.0119 95.4338 88.4315 95.0144L90.1503 93.2957C90.5699 92.8763 91.2498 92.8763 91.6694 93.2957L93.3882 95.0144C93.8078 95.434 93.8078 96.1142 93.3882 96.5336C93.1783 96.7433 92.9033 96.8481 92.6285 96.8481Z" fill="#6583FE"/>
<path d="M20.8709 23.744C20.5959 23.744 20.3211 23.6392 20.1112 23.4295L19.1522 22.4705L18.1931 23.4295C17.7735 23.8489 17.0935 23.8489 16.6739 23.4295C16.2544 23.0099 16.2544 22.3297 16.6739 21.9104L18.3927 20.1916C18.8123 19.7722 19.4923 19.7722 19.9119 20.1916L21.6306 21.9104C22.0502 22.3299 22.0502 23.0101 21.6306 23.4295C21.4207 23.6392 21.1457 23.744 20.8709 23.744Z" fill="#6583FE"/>
<path d="M25.199 11.9597H24.5544V11.3152C24.5544 10.722 24.0734 10.241 23.4802 10.241C22.887 10.241 22.406 10.722 22.406 11.3152V11.9597H21.7615C21.1683 11.9597 20.6873 12.4408 20.6873 13.0339C20.6873 13.6271 21.1683 14.1082 21.7615 14.1082H22.406V14.7527C22.406 15.3459 22.887 15.8269 23.4802 15.8269C24.0734 15.8269 24.5544 15.3459 24.5544 14.7527V14.1082H25.199C25.7922 14.1082 26.2732 13.6271 26.2732 13.0339C26.2732 12.4408 25.7922 11.9597 25.199 11.9597Z" fill="#6583FE"/>
<path d="M73.4 18.2891H72.7555V17.6445C72.7555 17.0513 72.2745 16.5703 71.6813 16.5703C71.0881 16.5703 70.6071 17.0513 70.6071 17.6445V18.2891H69.9625C69.3693 18.2891 68.8883 18.7701 68.8883 19.3633C68.8883 19.9565 69.3693 20.4375 69.9625 20.4375H70.6071V21.082C70.6071 21.6752 71.0881 22.1562 71.6813 22.1562C72.2745 22.1562 72.7555 21.6752 72.7555 21.082V20.4375H73.4C73.9932 20.4375 74.4742 19.9565 74.4742 19.3633C74.4742 18.7701 73.9932 18.2891 73.4 18.2891Z" fill="#6583FE"/>
<path d="M82.0702 99.0804H81.4257V98.4359C81.4257 97.8427 80.9446 97.3616 80.3514 97.3616C79.7583 97.3616 79.2772 97.8427 79.2772 98.4359V99.0804H78.6327C78.0395 99.0804 77.5585 99.5614 77.5585 100.155C77.5585 100.748 78.0395 101.229 78.6327 101.229H79.2772V101.873C79.2772 102.467 79.7583 102.948 80.3514 102.948C80.9446 102.948 81.4257 102.467 81.4257 101.873V101.229H82.0702C82.6634 101.229 83.1444 100.748 83.1444 100.155C83.1444 99.5614 82.6634 99.0804 82.0702 99.0804Z" fill="#6583FE"/>
<path d="M82.9646 87.915H60.3901C59.797 87.915 59.3159 87.4339 59.3159 86.8408V66.6873C59.3159 66.0941 84.0388 66.0941 84.0388 66.6873V86.8408C84.0388 87.4339 83.5578 87.915 82.9646 87.915Z" fill="white"/>
<path d="M84.0388 71.7759V66.6873C84.0388 66.0941 83.5578 65.6131 82.9646 65.6131H60.3901C59.797 65.6131 59.3159 66.0941 59.3159 66.6873V71.7759H84.0388Z" fill="#6583FE"/>
<path d="M68.7957 76.4077V81.632C68.7957 82.1296 69.3356 82.4394 69.7652 82.1887L74.2394 79.5764C74.6654 79.3276 74.6654 78.7119 74.2394 78.4631L69.7652 75.8508C69.3356 75.6001 68.7957 75.9101 68.7957 76.4077Z" fill="#6583FE"/>
<path d="M63.4814 70.0928C63.8967 70.0928 64.2334 69.7562 64.2334 69.3409C64.2334 68.9256 63.8967 68.5889 63.4814 68.5889C63.0662 68.5889 62.7295 68.9256 62.7295 69.3409C62.7295 69.7562 63.0662 70.0928 63.4814 70.0928Z" fill="#1B62AD"/>
<path d="M65.8806 70.0928C66.2959 70.0928 66.6326 69.7562 66.6326 69.3409C66.6326 68.9256 66.2959 68.5889 65.8806 68.5889C65.4653 68.5889 65.1287 68.9256 65.1287 69.3409C65.1287 69.7562 65.4653 70.0928 65.8806 70.0928Z" fill="#1B62AD"/>
<path d="M68.2795 70.0928C68.6948 70.0928 69.0315 69.7562 69.0315 69.3409C69.0315 68.9256 68.6948 68.5889 68.2795 68.5889C67.8642 68.5889 67.5276 68.9256 67.5276 69.3409C67.5276 69.7562 67.8642 70.0928 68.2795 70.0928Z" fill="#1B62AD"/>
<path d="M39.8126 66.3338H33.5106C32.324 66.3338 31.3622 65.372 31.3622 64.1854V22.1166C31.3622 21.1045 31.7195 20.1246 32.3713 19.3501L35.8397 15.2279C36.269 14.7178 37.0545 14.7178 37.4837 15.2279L40.9522 19.3501C41.6038 20.1246 41.9613 21.1043 41.9613 22.1166V64.1854C41.9611 65.372 40.9992 66.3338 39.8126 66.3338Z" fill="white"/>
<path d="M34.7819 21.8105H38.5416V66.3339H34.7819V21.8105Z" fill="#6583FE"/>
<path d="M41.9611 22.1167C41.9611 21.1046 41.6038 20.1247 40.9519 19.3501L37.4837 15.2281C37.0545 14.7179 36.269 14.7179 35.8397 15.2281L32.3713 19.3504C31.7197 20.1249 31.3622 21.1046 31.3622 22.1169L41.9611 22.1167Z" fill="white"/>
<path d="M40.5182 18.8347L37.4837 15.2281C37.0545 14.7179 36.269 14.7179 35.8397 15.2281L32.8053 18.8345L40.5182 18.8347Z" fill="#6583FE"/>
<path d="M93.0676 32.1555H90.265V30.6975C90.265 28.9205 88.8193 27.4749 87.0424 27.4749H59.5428C57.303 27.4749 55.3271 28.6238 54.1717 30.363C53.016 28.6241 51.0403 27.4749 48.8006 27.4749H43.0357V22.1169C43.0357 20.8536 42.5877 19.6253 41.7743 18.6588L38.3059 14.5368C37.8968 14.0504 37.2976 13.7715 36.6621 13.7715C36.6621 13.7715 36.6621 13.7715 36.6619 13.7715C36.0264 13.7715 35.4272 14.0504 35.0182 14.5368L31.5497 18.659C30.7363 19.6258 30.2884 20.8538 30.2884 22.1171V27.4751H21.3006C19.5236 27.4751 18.0779 28.9208 18.0779 30.6977V32.1557H15.2755C12.9062 32.1557 10.9786 34.0832 10.9786 36.4525V80.2686C10.9786 82.6379 12.9062 84.5655 15.2755 84.5655H41.3118V88.5397C41.3118 89.3381 41.7503 90.0659 42.456 90.4391C42.7723 90.6063 43.1171 90.689 43.4607 90.689C43.8839 90.689 44.3056 90.5635 44.6696 90.3154L46.925 88.7788L49.1804 90.3154C49.84 90.7648 50.6889 90.8123 51.3944 90.4391C52.1002 90.0659 52.5387 89.3381 52.5387 88.5399V84.5657H58.2419V86.8411C58.2419 88.0258 59.2057 88.9896 60.3903 88.9896H82.9648C84.1495 88.9896 85.1133 88.0258 85.1133 86.8411V84.5657H93.0679C95.4372 84.5657 97.3647 82.6381 97.3647 80.2689V36.4523C97.3645 34.083 95.4369 32.1555 93.0676 32.1555ZM20.2264 30.6975C20.2264 30.1052 20.7083 29.6233 21.3006 29.6233H30.2882V35.3848C30.2882 35.978 30.7692 36.459 31.3624 36.459C31.9556 36.459 32.4366 35.978 32.4366 35.3848V22.1169C32.4366 21.3589 32.7054 20.622 33.1933 20.0421L36.6617 15.9199L40.1301 20.0421C40.6181 20.622 40.8868 21.3589 40.8868 22.1169V64.1856C40.8868 64.778 40.4049 65.2599 39.8126 65.2599H33.5106C32.9183 65.2599 32.4364 64.778 32.4364 64.1856V41.959C32.4364 41.3658 31.9553 40.8848 31.3622 40.8848C30.769 40.8848 30.2879 41.3658 30.2879 41.959V64.1854C30.2879 65.9624 31.7336 67.4081 33.5106 67.4081H39.8126C41.5896 67.4081 43.0353 65.9624 43.0353 64.1854V29.6233H48.8002C51.1695 29.6233 53.097 31.5509 53.097 33.9202V74.6155C53.097 75.2078 52.6151 75.6897 52.0228 75.6897H21.3006C20.7083 75.6897 20.2264 75.2078 20.2264 74.6155V30.6975ZM15.2755 82.4169C14.0909 82.4169 13.1271 81.4531 13.1271 80.2684V36.4523C13.1271 35.2677 14.0909 34.3039 15.2755 34.3039H18.0779V74.6155C18.0779 76.3924 19.5236 77.8381 21.3006 77.8381H41.3118V82.4169H15.2755ZM50.3898 88.5393L47.5296 86.5908C47.1648 86.3423 46.6848 86.3423 46.32 86.5908L43.4598 88.5393V77.8381H50.3907L50.3954 88.5427C50.3958 88.5427 50.3939 88.5421 50.3898 88.5393ZM52.5384 82.4169V77.793C53.1604 77.6922 53.7222 77.4142 54.1715 77.0107C54.7423 77.5234 55.4943 77.8383 56.3199 77.8383H58.2415V82.4171L52.5384 82.4169ZM77.4081 66.6873H82.9646V86.8407H60.3901V66.6873H70.8339C71.4271 66.6873 71.9081 66.2062 71.9081 65.6131C71.9081 65.0199 71.4271 64.5388 70.8339 64.5388H60.3901C59.2055 64.5388 58.2417 65.5026 58.2417 66.6873V75.6897H56.3201C55.7278 75.6897 55.2459 75.2078 55.2459 74.6155V33.9202C55.2459 31.5509 57.1735 29.6233 59.5428 29.6233H87.0426C87.6349 29.6233 88.1168 30.1052 88.1168 30.6975V74.6155C88.1168 75.2078 87.6349 75.6897 87.0426 75.6897H85.1133V66.6873C85.1133 65.5026 84.1495 64.5388 82.9648 64.5388H77.4081C76.8149 64.5388 76.3339 65.0199 76.3339 65.6131C76.3339 66.2062 76.8149 66.6873 77.4081 66.6873ZM95.2161 80.2684C95.2161 81.4531 94.2523 82.4169 93.0676 82.4169H85.1131V77.8381H87.0424C88.8193 77.8381 90.265 76.3924 90.265 74.6155V34.3039H93.0676C94.2523 34.3039 95.2161 35.2677 95.2161 36.4523V80.2684Z" fill="#1B62AD"/>
<path d="M70.2555 53.1484H59.6165C59.0231 53.1484 58.5422 52.6674 58.5422 52.0742C58.5422 51.481 59.0231 51 59.6165 51H70.2555C70.8489 51 71.3297 51.481 71.3297 52.0742C71.3297 52.6674 70.8489 53.1484 70.2555 53.1484Z" fill="#1B62AD"/>
<path d="M76.0563 56.9089H59.6165C59.0231 56.9089 58.5422 56.4279 58.5422 55.8347C58.5422 55.2415 59.0231 54.7604 59.6165 54.7604H76.0563C76.6497 54.7604 77.1305 55.2415 77.1305 55.8347C77.1305 56.4279 76.6497 56.9089 76.0563 56.9089Z" fill="#1B62AD"/>
<path d="M59.9491 49.2705C60.5424 49.2705 61.0233 48.7896 61.0233 48.1963C61.0233 47.603 60.5424 47.1221 59.9491 47.1221C59.3558 47.1221 58.8749 47.603 58.8749 48.1963C58.8749 48.7896 59.3558 49.2705 59.9491 49.2705Z" fill="#1B62AD"/>
<path d="M63.4403 49.2705C64.0336 49.2705 64.5145 48.7896 64.5145 48.1963C64.5145 47.603 64.0336 47.1221 63.4403 47.1221C62.847 47.1221 62.3661 47.603 62.3661 48.1963C62.3661 48.7896 62.847 49.2705 63.4403 49.2705Z" fill="#1B62AD"/>
<path d="M46.199 37.884C46.7922 37.884 47.2732 37.4031 47.2732 36.8098C47.2732 36.2165 46.7922 35.7356 46.199 35.7356C45.6057 35.7356 45.1248 36.2165 45.1248 36.8098C45.1248 37.4031 45.6057 37.884 46.199 37.884Z" fill="#1B62AD"/>
</g>
<defs>
<clipPath id="clip0">
<rect width="110" height="110" fill="white"/>
</clipPath>
</defs>
</svg>
