<svg width="12" height="7" viewBox="0 0 12 7" fill="none" xmlns="http://www.w3.org/2000/svg">
<path d="M2.12004 0.292021L6.00004 4.17202L9.88004 0.292021C9.97262 0.199439 10.0825 0.125999 10.2035 0.0758944C10.3245 0.0257894 10.4541 9.75511e-10 10.585 0C10.716 -9.75506e-10 10.8456 0.0257894 10.9666 0.0758944C11.0875 0.125999 11.1975 0.199439 11.29 0.292021C11.3826 0.384603 11.4561 0.494513 11.5062 0.615478C11.5563 0.736442 11.5821 0.86609 11.5821 0.997021C11.5821 1.12795 11.5563 1.2576 11.5062 1.37856C11.4561 1.49953 11.3826 1.60944 11.29 1.70202L6.70004 6.29202C6.60752 6.38472 6.49763 6.45827 6.37666 6.50845C6.25569 6.55863 6.12601 6.58447 5.99504 6.58447C5.86407 6.58447 5.73439 6.55863 5.61341 6.50845C5.49244 6.45827 5.38255 6.38472 5.29004 6.29202L0.700037 1.70202C0.607333 1.60951 0.533785 1.49962 0.483604 1.37864C0.433422 1.25767 0.407593 1.12799 0.407593 0.997021C0.407593 0.866052 0.433422 0.73637 0.483604 0.615396C0.533785 0.494423 0.607333 0.384534 0.700037 0.292021C1.09004 -0.0879792 1.73004 -0.0979792 2.12004 0.292021Z" fill="#8C98A4"/>
</svg>
