<svg width="200" height="200" viewBox="0 0 200 200" fill="none" xmlns="http://www.w3.org/2000/svg">
<g clip-path="url(#clip0)">
<path d="M4.16779 66.667V8.87596C4.07404 6.36922 6.02974 4.26142 8.53649 4.16768C8.64951 4.16351 8.76305 4.16351 8.87607 4.16768H66.6671V66.667H4.16779Z" fill="white"/>
<path d="M133.333 195.832V133.333H195.832V191.124C195.926 193.631 193.97 195.739 191.464 195.832C191.351 195.837 191.237 195.837 191.124 195.832H133.333Z" fill="white"/>
<path d="M66.6671 4.29272H133.291V66.6671H66.6671V4.29272Z" fill="#CC9640"/>
<path d="M66.6671 133.333H133.291V195.707H66.6671V133.333Z" fill="#CC9640"/>
<path d="M4.2926 66.6671H66.6669V133.333H4.2926V66.6671Z" fill="#CC9640"/>
<path d="M8.87596 195.832C6.36922 195.926 4.26142 193.97 4.16768 191.464C4.16351 191.351 4.16351 191.237 4.16768 191.124V133.333H66.667V195.832H8.87596Z" fill="white"/>
<path d="M133.333 66.667V4.16766H191.124C193.631 4.07391 195.739 6.02962 195.832 8.53637C195.837 8.64939 195.837 8.76293 195.832 8.87595V66.667H133.333Z" fill="white"/>
<path d="M66.6671 66.667H133.291V133.333H66.6671V66.667Z" fill="white"/>
<path d="M133.333 66.667H195.707V133.333H133.333V66.667Z" fill="#CC9640"/>
<path d="M191.124 0.000927722H8.87608C4.04384 -0.0688632 0.0704457 3.79203 0.0011756 8.62376C0.00013394 8.70761 0.00013394 8.79146 0.0011756 8.87532V191.123C-0.0686153 195.955 3.79228 199.929 8.62452 199.998C8.70838 199.999 8.79223 199.999 8.87608 199.998H191.124C195.956 200.068 199.929 196.207 199.999 191.375C200 191.291 200 191.207 199.999 191.123V8.87584C200.069 4.04411 196.208 0.0707187 191.376 0.000927722C191.292 -0.000634762 191.208 -0.000634762 191.124 0.000927722ZM62.5005 191.666H8.87608C8.66879 191.666 8.50109 191.498 8.50109 191.291V137.5H62.5005V191.666ZM62.5005 129.166H8.33442V70.8335H62.5005V129.166ZM62.5005 62.5003H8.33442V8.87584C8.33442 8.66855 8.50213 8.50084 8.70942 8.50084H62.5005V62.5003ZM129.167 191.666H70.8338V137.5H129.167V191.666ZM129.167 129.166H70.8338V70.8335H129.167V129.166ZM129.167 62.5003H70.8338V8.33418H129.167V62.5003ZM191.666 191.124C191.666 191.331 191.498 191.499 191.291 191.499H137.5V137.5H191.666V191.124ZM191.666 129.166H137.5V70.8335H191.666V129.166ZM191.666 62.5003H137.5V8.33418H191.124C191.331 8.33418 191.499 8.50188 191.499 8.70917L191.666 62.5003Z" fill="#35231A"/>
<path d="M92.5002 53.1671C93.9971 54.915 96.6272 55.1187 98.3751 53.6218C100.123 52.125 100.327 49.4948 98.8298 47.7469C98.6902 47.5839 98.5381 47.4318 98.3751 47.2922L85.8753 34.7923C84.3784 33.0444 81.7482 32.8408 80.0003 34.3376C78.2524 35.8345 78.0488 38.4647 79.5456 40.2126C79.6852 40.3756 79.8373 40.5277 80.0003 40.6673L92.5002 53.1671Z" fill="#35231A"/>
<path d="M111.417 34.209C113.165 35.7059 115.795 35.5022 117.292 33.7543C118.628 32.1944 118.628 29.8939 117.292 28.3341L104.792 15.8342C103.295 14.0863 100.665 13.8826 98.9168 15.3795C97.1689 16.8764 96.9653 19.5065 98.4621 21.2544C98.6017 21.4175 98.7538 21.5695 98.9168 21.7091L111.417 34.209Z" fill="#35231A"/>
<path d="M109.208 50.9172C110.956 52.4141 113.587 52.2104 115.083 50.4625C116.419 48.9027 116.419 46.6022 115.083 45.0423L88.0836 18.0426C86.5868 16.2947 83.9566 16.091 82.2087 17.5879C80.4608 19.0847 80.2572 21.7149 81.754 23.4628C81.8936 23.6258 82.0457 23.7779 82.2087 23.9175L109.208 50.9172Z" fill="#35231A"/>
<path d="M159.958 118.667C161.455 120.414 164.085 120.618 165.833 119.121C167.581 117.624 167.784 114.994 166.287 113.246C166.148 113.083 165.996 112.931 165.833 112.792L153.333 100.292C151.585 98.7949 148.955 98.9985 147.458 100.746C146.122 102.306 146.122 104.607 147.458 106.167L159.958 118.667Z" fill="#35231A"/>
<path d="M178.874 99.7083C180.371 101.456 183.001 101.66 184.749 100.163C186.497 98.6661 186.701 96.0359 185.204 94.288C185.064 94.125 184.912 93.9729 184.749 93.8334L172.249 81.3335C170.502 79.8366 167.871 80.0403 166.375 81.7882C165.039 83.3481 165.039 85.6485 166.375 87.2084L178.874 99.7083Z" fill="#35231A"/>
<path d="M176.666 116.458C178.163 118.206 180.793 118.41 182.541 116.913C184.289 115.416 184.493 112.786 182.996 111.038C182.856 110.875 182.704 110.723 182.541 110.583L155.541 83.5835C154.044 81.8356 151.414 81.6319 149.666 83.1288C147.918 84.6256 147.715 87.2558 149.212 89.0037C149.351 89.1667 149.503 89.3188 149.666 89.4584L176.666 116.458Z" fill="#35231A"/>
<path d="M29.6259 118.667C31.3738 120.163 34.004 119.96 35.5009 118.212C36.8368 116.652 36.8368 114.351 35.5009 112.792L23.001 100.292C21.5041 98.5438 18.874 98.3402 17.1261 99.837C15.3782 101.334 15.1745 103.964 16.6714 105.712C16.811 105.875 16.963 106.027 17.1261 106.167L29.6259 118.667Z" fill="#35231A"/>
<path d="M48.5425 99.7083C50.2904 101.205 52.9205 101.002 54.4174 99.2536C55.7533 97.6937 55.7533 95.3932 54.4174 93.8334L41.9175 81.3335C40.1696 79.8366 37.5395 80.0403 36.0426 81.7882C34.7067 83.3481 34.7067 85.6485 36.0426 87.2084L48.5425 99.7083Z" fill="#35231A"/>
<path d="M46.3339 116.458C47.8308 118.206 50.4609 118.41 52.2088 116.913C53.9567 115.416 54.1604 112.786 52.6635 111.038C52.5239 110.875 52.3719 110.723 52.2088 110.583L25.2091 83.5835C23.7123 81.8356 21.0821 81.6319 19.3342 83.1288C17.5863 84.6256 17.3826 87.2558 18.8795 89.0037C19.0191 89.1667 19.1712 89.3188 19.3342 89.4584L46.3339 116.458Z" fill="#35231A"/>
<path d="M95.167 185.374C96.9149 186.871 99.545 186.667 101.042 184.919C102.378 183.36 102.378 181.059 101.042 179.499L88.542 166.999C86.7941 165.502 84.164 165.706 82.6671 167.454C81.3312 169.014 81.3312 171.314 82.6671 172.874L95.167 185.374Z" fill="#35231A"/>
<path d="M114.083 166.458C115.58 168.206 118.21 168.409 119.958 166.912C121.706 165.415 121.91 162.785 120.413 161.037C120.273 160.874 120.121 160.722 119.958 160.583L107.458 148.083C105.779 146.472 103.111 146.528 101.5 148.208C99.8891 149.887 99.9454 152.555 101.625 154.166L114.083 166.458Z" fill="#35231A"/>
<path d="M111.875 183.332C113.623 184.829 116.253 184.626 117.75 182.878C119.086 181.318 119.086 179.017 117.75 177.457L90.7502 150.458C89.0023 148.961 86.3721 149.165 84.8752 150.912C83.5393 152.472 83.5393 154.773 84.8752 156.333L111.875 183.332Z" fill="#35231A"/>
</g>
<defs>
<clipPath id="clip0">
<rect width="200" height="200" fill="white"/>
</clipPath>
</defs>
</svg>
