<svg width="200" height="200" viewBox="0 0 200 200" fill="none" xmlns="http://www.w3.org/2000/svg">
<g clip-path="url(#clip0)">
<path d="M163.748 25.2013C150.718 11.4336 132.671 3.52389 113.716 3.27258C105.944 3.32653 98.2279 4.58085 90.8397 6.9917L83.8225 9.27229L89.4713 12.7809C87.3184 11.6125 84.9588 10.874 82.5243 10.6056H81.5419L80.6297 11.0266C73.2221 14.4387 66.1707 18.5758 59.5781 23.3769C57.7185 24.7101 55.894 26.1487 53.7889 27.9381L46.9822 33.7273L55.9291 34.1132H56.3501H53.859C51.9718 34.1123 50.0855 34.2176 48.2102 34.429H46.912L46.0348 35.4114C39.4273 42.7141 34.3986 51.3023 31.2636 60.6382L29.1936 66.7783L34.3512 65.445C32.4614 66.0191 30.7716 67.1134 29.4742 68.6028L28.948 69.2694V70.1115C27.2419 79.3018 27.0051 88.7049 28.2462 97.9698L29.1234 104.987L33.9302 99.8995L34.281 99.5837C32.707 101.083 31.3066 102.754 30.1058 104.566L29.2988 105.794L29.6146 107.232C31.3233 115.186 33.8999 122.928 37.2984 130.319L37.6844 131.161L57.1922 144.845L55.087 135.863C52.2227 121.77 52.8007 107.195 56.7712 93.3735C70.8056 38.7796 122.768 24.6751 123.435 24.5347L144.03 41.4111L166.731 28.4644L163.748 25.2013Z" fill="#CC9640"/>
<path d="M44.4209 178.878H158.872V196.351H44.4209V178.878Z" fill="#CC9640"/>
<path d="M54.9463 161.405H148.31V178.878H54.9463V161.405Z" fill="#FFCF70"/>
<path d="M116.242 81.8303L133.118 87.9002L134.978 106.11L158.871 116.881L172.906 93.4789L171.783 91.6544C160.415 73.3044 147.223 50.7441 144.17 42.5339L143.854 41.6217L123.224 24.605L121.399 25.2014C112.803 27.9382 69.2965 44.183 56.7357 93.5139C45.6836 136.88 64.4196 156.914 68.279 160.493L69.2965 161.44H137.363L138.381 159.756C141.258 155.02 147.363 143.09 141.504 134.284C136.416 126.6 112.417 92.4614 105.19 82.2162L104.979 81.9005L112.873 63.6557L116.242 81.8303Z" fill="#FFCF70"/>
<path d="M148.205 43.0602L168.38 31.5871C170.066 30.6328 170.659 28.4916 169.705 26.8053C169.623 26.6619 169.533 26.5246 169.432 26.3944C147.546 0.604825 111.073 -7.27988 80.4892 7.16723L79.8927 7.44792C71.9997 10.971 64.4974 15.3098 57.5078 20.3947C22.0008 45.9724 20.9833 81.5496 25.9304 105.829C25.9058 106.411 26.0264 106.99 26.2813 107.513C28.0877 116.289 30.9385 124.817 34.7721 132.916C35.0278 133.418 35.401 133.851 35.8597 134.179L55.6483 148.213C57.2298 151.644 59.1832 154.892 61.4725 157.897H54.9465C53.0089 157.897 51.4379 159.468 51.4379 161.405V175.44H44.4207C42.4831 175.44 40.9121 177.011 40.9121 178.948V196.491C40.9121 198.429 42.4831 200 44.4207 200H158.871C160.809 200 162.38 198.429 162.38 196.491V178.948C162.38 177.011 160.809 175.44 158.871 175.44H151.854V161.405C151.854 159.468 150.283 157.897 148.346 157.897H143.433C146.626 151.546 150.17 140.95 144.451 132.319C139.258 124.46 114.663 89.3738 108.979 81.4443L111.505 75.6201L112.768 82.6373C112.991 83.8613 113.845 84.8762 115.014 85.3038L129.785 90.6369L131.645 106.496C131.769 107.738 132.544 108.82 133.68 109.338L157.573 120.109C157.833 120.211 158.104 120.282 158.38 120.32H158.766C159.115 120.373 159.47 120.373 159.819 120.32C160.229 120.18 160.609 119.966 160.941 119.688C161.069 119.557 161.187 119.416 161.292 119.267C161.448 119.117 161.588 118.952 161.713 118.776L175.748 95.3735C176.374 94.288 176.374 92.9504 175.748 91.8649C169.362 81.1987 152.872 54.0422 148.205 43.0602ZM53.4729 92.6368C49.338 106.995 48.76 122.144 51.7888 136.775L40.4209 128.916C37.1448 121.77 34.662 114.287 33.0178 106.601C34.737 104.005 38.3859 99.5838 42.3507 99.1277C44.2883 98.9049 45.6786 97.1532 45.4558 95.2156C45.233 93.278 43.4813 91.8877 41.5437 92.1105C37.6917 92.7311 34.1519 94.6056 31.474 97.4436C30.2841 88.5523 30.5091 79.5291 32.1406 70.708C32.3862 70.3922 35.6492 66.603 44.947 68.6029C46.8846 69.0098 48.7854 67.7687 49.1924 65.8311C49.5994 63.8934 48.3583 61.9926 46.4206 61.5857C42.4998 60.644 38.4122 60.644 34.4914 61.5857C37.4614 52.7023 42.2397 44.5308 48.5258 37.5868C54.24 36.8101 60.0568 37.3868 65.5074 39.2709C65.9508 39.46 66.4289 39.5556 66.9109 39.5516C68.8485 39.5674 70.4322 38.0096 70.448 36.072C70.4594 34.6554 69.6178 33.3703 68.3143 32.8151C64.3948 31.2384 60.2226 30.3828 55.9991 30.2889C57.7534 28.7802 59.5077 27.3066 61.5778 25.9032C67.992 21.2319 74.8557 17.2124 82.068 13.9037C85.7288 14.277 89.0519 16.2071 91.1904 19.2017C92.2272 20.8389 94.3951 21.3262 96.0323 20.2894C97.6695 19.2526 98.1567 17.0847 97.1199 15.4475C95.7818 13.352 93.9968 11.5784 91.8921 10.2548C116.395 1.88766 143.527 8.68777 161.187 27.6224L144.205 37.271L125.469 21.9384C124.61 21.2271 123.464 20.9666 122.382 21.2367C121.856 21.3771 67.8582 35.6571 53.3677 92.6368H53.4729ZM155.363 182.387V192.913H47.9293V182.387H155.363ZM144.837 164.844V175.37H58.4551V164.844H144.802H144.837ZM159.713 108.39L155.819 95.8647C155.238 94.0144 153.266 92.9855 151.416 93.5666C149.565 94.1477 148.536 96.1195 149.117 97.9699L153.187 110.425L138.241 103.759L136.557 87.5493C136.418 86.2024 135.517 85.0556 134.241 84.6021L119.259 79.1988L116.277 62.954C115.927 61.048 114.099 59.7862 112.193 60.1353C111.046 60.3458 110.078 61.1129 109.611 62.1821L101.716 80.4268C101.194 81.5746 101.328 82.914 102.067 83.9355C102.383 84.3565 132.838 127.618 138.557 136.249C143.328 143.476 137.714 154.107 135.364 157.967H70.7002C66.7003 154.248 49.6485 135.617 60.1743 94.4262C72.2439 47.06 113.681 31.2713 122.487 28.6048L140.872 43.6567C144.837 54.6386 163.854 85.7599 168.941 93.6192L159.713 108.39Z" fill="#35231A"/>
</g>
<defs>
<clipPath id="clip0">
<rect width="200" height="200" fill="white"/>
</clipPath>
</defs>
</svg>
