<svg width="200" height="200" viewBox="0 0 200 200" fill="none" xmlns="http://www.w3.org/2000/svg">
<g clip-path="url(#clip0)">
<path d="M99.9988 62.7598C116.251 62.7598 129.427 49.5844 129.427 33.3317C129.427 17.0791 116.251 3.90369 99.9988 3.90369C83.7462 3.90369 70.5708 17.0791 70.5708 33.3317C70.5708 49.5844 83.7462 62.7598 99.9988 62.7598Z" fill="#FFCF70"/>
<path d="M53.4111 149.957L62.1075 143.046C80.0051 128.798 82.5674 103.524 82.8392 93.3137V89.4314H116.848V93.3137C117.12 103.524 119.682 128.798 137.58 143.046L146.587 149.957H53.4111Z" fill="#FFCF70"/>
<path d="M59.8945 62.7598H140.142V76.1538H59.8945V62.7598Z" fill="#CC9640"/>
<path d="M71.1147 76.1538H128.884V89.5478H71.1147V76.1538Z" fill="#FFCF70"/>
<path d="M36.9111 169.213H163.126V196.001H36.9111V169.213Z" fill="#CC9640"/>
<path d="M49.7227 149.957H150.275V169.213H49.7227V149.957Z" fill="#FFCF70"/>
<path d="M163.087 165.331H154.157V149.802C154.157 149.802 154.157 149.607 154.157 149.491C154.101 149.008 153.97 148.536 153.769 148.093C153.64 147.844 153.483 147.61 153.303 147.395L152.954 146.967C152.728 146.771 152.481 146.602 152.216 146.463L151.673 146.54C125.001 136.835 121.507 104.611 121.119 93.6631H128.883C131.027 93.6631 132.766 91.9248 132.766 89.7808V80.0361H140.142C142.286 80.0361 144.025 78.2978 144.025 76.1538V62.7598C144.025 60.6158 142.286 58.8774 140.142 58.8774H121.352C135.472 47.0844 137.358 26.0781 125.566 11.9581C113.772 -2.16194 92.7662 -4.04827 78.6461 7.7443C64.5261 19.5369 62.6398 40.5436 74.4324 54.6637C75.7082 56.1914 77.1184 57.6016 78.6461 58.8774H59.8945C57.7505 58.8774 56.0122 60.6158 56.0122 62.7598V76.1538C56.0122 78.2978 57.7505 80.0361 59.8945 80.0361H67.2321V89.5478C67.2321 91.6918 68.9704 93.4302 71.1144 93.4302H78.8791C78.4908 104.417 74.9968 136.64 48.3252 146.307L47.8593 146.579C47.5948 146.718 47.3473 146.888 47.1217 147.084L46.7722 147.511C46.5922 147.726 46.4359 147.961 46.3064 148.21C46.1059 148.653 45.9749 149.125 45.9181 149.607C45.9181 149.607 45.9181 149.607 45.9181 149.918V165.447H36.9111C34.7671 165.447 33.0288 167.186 33.0288 169.33V196.118C33.0288 198.262 34.7671 200 36.9111 200H163.087C165.231 200 166.969 198.262 166.969 196.118V169.33C167.034 167.187 165.348 165.397 163.205 165.333C163.166 165.331 163.127 165.331 163.087 165.331ZM74.4532 33.3317C74.4532 19.2234 85.8906 7.78603 99.9989 7.78603C114.107 7.78603 125.545 19.2234 125.545 33.3317C125.545 47.4401 114.107 58.8774 99.9989 58.8774C85.8993 58.8561 74.4746 47.4314 74.4532 33.3317ZM63.7768 72.155V66.6421H136.221V72.2715H63.7768V72.155ZM74.9968 85.549V80.0361H125.001V85.6655H74.9968V85.549ZM86.6437 93.3137H113.082C113.354 103.602 115.994 130.623 135.25 145.997H64.5921C83.8873 130.7 86.4884 103.835 86.7602 93.4302L86.6437 93.3137ZM53.6051 153.839H146.393V165.486H53.6051V153.839ZM159.204 192.119H40.7935V173.095H159.204V192.119Z" fill="#35231A"/>
</g>
<defs>
<clipPath id="clip0">
<rect width="200" height="200" fill="white"/>
</clipPath>
</defs>
</svg>
