<svg width="200" height="200" viewBox="0 0 200 200" fill="none" xmlns="http://www.w3.org/2000/svg">
<path d="M76.6021 75.2775H123.497V87.2662H76.6021V75.2775Z" fill="#FFCF70"/>
<path d="M83.4908 63.3218L83.0934 60.2418C81.7422 50.0025 78.627 40.075 73.8866 30.8992L69.4487 21.858L86.4383 30.7667L94.7509 19.4735C92.4169 17.7956 91.0355 15.0953 91.0417 12.2206C91.0454 7.24545 95.0813 3.21539 100.056 3.21912C105.026 3.22284 109.054 7.25083 109.058 12.2206C109.072 15.089 107.703 17.7886 105.382 19.4735L113.694 30.7667L130.684 21.858L126.213 30.9323C121.488 40.0998 118.384 50.0162 117.039 60.2418L116.774 63.2556L83.4908 63.3218Z" fill="#FFCF70"/>
<path d="M65.4082 167.544L70.0778 162.08C84.4511 145.256 82.8945 103.262 82.0666 90.8097L81.8348 87.2661H118.265L118.033 90.8097C117.205 103.262 115.681 145.256 130.022 162.08L134.691 167.544H65.4082Z" fill="#FFCF70"/>
<path d="M70.2437 63.3218H129.889V75.3105H70.2437V63.3218Z" fill="#CC9640"/>
<path d="M55.3071 167.544H144.759V179.533H55.3071V167.544Z" fill="#FFCF70"/>
<path d="M48.8159 179.533H151.316V196.754H48.8159V179.533Z" fill="#CC9640"/>
<path d="M48.8159 179.533H151.316V196.754H48.8159V179.533Z" fill="#CC9640"/>
<path d="M151.283 176.155H147.971V167.544C147.971 165.715 146.489 164.232 144.66 164.232H138.036C120.45 156.284 119.92 111.078 121.345 90.5779H123.497C125.326 90.5779 126.809 89.0951 126.809 87.2661V78.5892H129.856C131.685 78.5892 133.168 77.1063 133.168 75.2774V63.3217C133.168 61.4928 131.685 60.0099 129.856 60.0099H120.384C122.073 42.8879 134.029 23.5801 134.161 23.2489C135.099 21.6787 134.586 19.6452 133.016 18.7076C132.052 18.1321 130.863 18.0837 129.856 18.5792L114.721 26.5276L109.786 19.904C111.494 17.7463 112.417 15.0716 112.403 12.3199C112.403 5.51581 106.887 0 100.083 0C93.2786 0 87.7628 5.51581 87.7628 12.3199C87.7487 15.0716 88.6715 17.7463 90.3791 19.904L85.4445 26.5276L70.2433 18.5792C68.6019 17.772 66.6173 18.4476 65.8097 20.089C65.3141 21.0962 65.3626 22.2856 65.938 23.2489C65.938 23.4476 78.0261 42.8879 79.7151 60.0099H70.2433C68.4144 60.0099 66.9315 61.4928 66.9315 63.3217V75.3105C66.9315 77.1394 68.4144 78.6223 70.2433 78.6223H73.2902V87.2992C73.2902 89.1282 74.7731 90.611 76.602 90.611H78.7547C80.1788 111.078 79.6489 156.284 61.9638 164.232H55.3402C53.5113 164.232 52.0284 165.715 52.0284 167.544V176.155H48.7166C46.8876 176.155 45.4048 177.638 45.4048 179.467V196.688C45.4048 198.517 46.8876 200 48.7166 200H151.283C153.112 200 154.595 198.517 154.595 196.688V179.467C154.595 177.638 153.112 176.155 151.283 176.155ZM76.8669 29.4751L84.8815 33.7473C86.3284 34.5094 88.1151 34.1017 89.0875 32.7869L97.4002 21.4274C98.4976 19.964 98.2012 17.8883 96.7378 16.7909C95.2636 15.7348 94.3885 14.0338 94.3864 12.2206C94.3864 9.07476 96.9369 6.52426 100.083 6.52426C103.229 6.52426 105.779 9.07476 105.779 12.2206C105.762 14.0458 104.86 15.7493 103.361 16.7909C101.889 17.8767 101.576 19.9499 102.662 21.422C102.663 21.4237 102.664 21.4257 102.666 21.4274L110.979 32.7206C111.951 34.0354 113.738 34.4432 115.185 33.6811L123.232 29.4751C118.316 39.0131 115.1 49.3347 113.727 59.9768H86.3718C84.9995 49.3347 81.7829 39.0131 76.8669 29.4751ZM76.602 71.9656H73.5551V66.6336H126.544V71.9987H76.602V71.9656ZM120.185 78.5892V83.9543H79.9138V78.5892H120.185ZM85.3783 90.5779H114.721C113.893 103.461 112.336 146.415 127.504 164.199H72.5947C87.7628 146.349 86.2394 103.461 85.3783 90.5779ZM58.6189 170.856H141.414V176.155H58.6189V170.856ZM148.038 193.443H52.1278V182.779H147.971L148.038 193.443Z" fill="#35231A"/>
</svg>
