<svg width="35" height="35" viewBox="0 0 35 35" fill="none" xmlns="http://www.w3.org/2000/svg">
<path d="M23.7356 20.5906L18.8557 16.9306V9.47519C18.8557 8.72557 18.2497 8.11963 17.5001 8.11963C16.7505 8.11963 16.1445 8.72557 16.1445 9.47519V17.6085C16.1445 18.0354 16.3452 18.4381 16.6868 18.6929L22.1089 22.7595C22.3529 22.9425 22.6376 23.0307 22.9209 23.0307C23.3343 23.0307 23.741 22.8449 24.0067 22.4871C24.4568 21.8892 24.3348 21.0393 23.7356 20.5906Z" fill="#2A87F7"/>
<path d="M17.5 0C7.84991 0 0 7.84991 0 17.5C0 27.1501 7.84991 35 17.5 35C27.1501 35 35 27.1501 35 17.5C35 7.84991 27.1501 0 17.5 0ZM17.5 32.2889C9.34644 32.2889 2.71106 25.6536 2.71106 17.5C2.71106 9.34644 9.34644 2.71106 17.5 2.71106C25.6549 2.71106 32.2889 9.34644 32.2889 17.5C32.2889 25.6536 25.6536 32.2889 17.5 32.2889Z" fill="#2A87F7"/>
</svg>
