<svg width="70" height="70" viewBox="0 0 70 70" fill="none" xmlns="http://www.w3.org/2000/svg">
<circle cx="35" cy="35" r="35" fill="#FFAC4B"/>
<path d="M53.4262 30.0041C53.4323 30.1142 53.4242 30.2262 53.3966 30.3374L50.9293 40.2066C50.8049 40.7038 50.3593 41.0534 49.847 41.0561L35.0432 41.1309C35.0413 41.1309 35.0395 41.1309 35.0375 41.1309H20.2336C19.7187 41.1309 19.2699 40.7801 19.1455 40.2803L16.6782 30.3738C16.6498 30.2595 16.6416 30.1444 16.6487 30.0315C15.6943 29.7308 15 28.8376 15 27.7851C15 26.4864 16.0564 25.4299 17.3551 25.4299C18.6538 25.4299 19.7103 26.4864 19.7103 27.7851C19.7103 28.5164 19.3752 29.1708 18.8505 29.6031L21.9395 32.7155C22.7202 33.5021 23.8036 33.9531 24.9119 33.9531C26.2224 33.9531 27.4719 33.3308 28.2588 32.2881L33.3354 25.5615C32.9089 25.1353 32.6449 24.5465 32.6449 23.8972C32.6449 22.5985 33.7013 21.5421 35 21.5421C36.2987 21.5421 37.3551 22.5985 37.3551 23.8972C37.3551 24.527 37.1051 25.0987 36.7009 25.5217C36.7023 25.5235 36.7039 25.525 36.7053 25.527L41.7451 32.2721C42.5317 33.3248 43.7856 33.9533 45.0999 33.9533C46.2184 33.9533 47.2702 33.5177 48.0611 32.7267L51.1696 29.6182C50.6338 29.186 50.2897 28.5254 50.2897 27.7851C50.2897 26.4864 51.3462 25.4299 52.6449 25.4299C53.9436 25.4299 55 26.4864 55 27.7851C55 28.8095 54.3413 29.6808 53.4262 30.0041ZM50.6885 44.6449C50.6885 44.0255 50.1864 43.5234 49.567 43.5234H20.5577C19.9383 43.5234 19.4362 44.0255 19.4362 44.6449V47.3365C19.4362 47.9558 19.9383 48.458 20.5577 48.458H49.567C50.1864 48.458 50.6885 47.9558 50.6885 47.3365V44.6449Z" fill="white"/>
</svg>
