<svg width="70" height="70" viewBox="0 0 70 70" fill="none" xmlns="http://www.w3.org/2000/svg">
<path d="M74.5 2C72.0382 -0.461758 60.4476 9.50396e-05 56.966 0.000231758L13.0339 -4.16785e-05C5.84691 0.000231758 -10 -1.68652 -10 5.49996L-9 64.5C-9 71.6869 5.84719 70 13.0339 70H56.966C64.1529 70 76 71.6869 76 64.5L70 13.034C70 9.5525 76.9618 4.46176 74.5 2ZM22.6769 29.7355C23.4776 28.9347 24.776 28.9347 25.5771 29.7355L32.9492 37.1076L32.9489 15.2303C32.9489 14.0977 33.8671 13.1795 34.9997 13.1795C36.1324 13.1795 37.0505 14.0977 37.0505 15.2303L37.0508 37.1071L44.4224 29.7352C45.2231 28.9344 46.5217 28.9344 47.3226 29.7352C48.1235 30.536 48.1235 31.8345 47.3227 32.6354L36.45 43.5084C36.0653 43.8931 35.5437 44.1091 34.9999 44.1091C34.4561 44.1091 33.9344 43.8931 33.55 43.5084L22.6771 32.6357C21.876 31.8349 21.876 30.5364 22.6769 29.7355ZM54.7698 56.8203H15.2305C14.098 56.8203 13.1797 55.9021 13.1797 54.7695C13.1797 53.6369 14.098 52.7187 15.2305 52.7187H54.7697C55.9021 52.7187 56.8204 53.6369 56.8204 54.7695C56.8206 55.9021 55.9022 56.8203 54.7698 56.8203Z" fill="#323232"/>
</svg>
