<svg width="44" height="51" viewBox="0 0 44 51" fill="none" xmlns="http://www.w3.org/2000/svg">
<g clip-path="url(#clip0)">
<path d="M21.8067 51C21.5666 51 21.3319 50.8895 21.1577 50.6897C20.9414 50.439 20.8461 50.0777 20.9066 49.7313L22.2027 42.2195C22.2394 42.0112 22.3237 41.8221 22.4539 41.6755L36.7136 25.1472C37.7842 23.9062 39.5314 23.9062 40.6021 25.1472L43.1944 28.1519C44.2669 29.3951 44.2669 31.4159 43.1944 32.6591L28.9347 49.1873C28.8082 49.3361 28.6451 49.436 28.4654 49.4785L21.9846 50.9808C21.9259 50.9936 21.8654 51 21.8067 51ZM23.9481 42.9483L22.9764 48.5817L27.8366 47.4555L41.9001 31.1546C42.2576 30.7402 42.2576 30.0666 41.9001 29.6522L39.3077 26.6474C38.9502 26.2331 38.3691 26.2331 38.0116 26.6474L23.9481 42.9483ZM28.2876 48.4351H28.3059H28.2876Z" fill="#323232"/>
<path d="M17.4167 44.625H4.58333C2.05517 44.625 0 42.2429 0 39.3125V11.6875C0 8.75713 2.05517 6.375 4.58333 6.375H8.25C8.756 6.375 9.16667 6.851 9.16667 7.4375C9.16667 8.024 8.756 8.5 8.25 8.5H4.58333C3.06717 8.5 1.83333 9.93012 1.83333 11.6875V39.3125C1.83333 41.0699 3.06717 42.5 4.58333 42.5H17.4167C17.9227 42.5 18.3333 42.976 18.3333 43.5625C18.3333 44.149 17.9227 44.625 17.4167 44.625Z" fill="#323232"/>
<path d="M30.25 25.5C29.744 25.5 29.3333 25.024 29.3333 24.4375V11.6875C29.3333 9.93012 28.0995 8.5 26.5833 8.5H22.9167C22.4107 8.5 22 8.024 22 7.4375C22 6.851 22.4107 6.375 22.9167 6.375H26.5833C29.1115 6.375 31.1667 8.75713 31.1667 11.6875V24.4375C31.1667 25.024 30.756 25.5 30.25 25.5Z" fill="#323232"/>
<path d="M21.084 12.75H10.084C8.56782 12.75 7.33398 11.3199 7.33398 9.5625V5.3125C7.33398 4.726 7.74465 4.25 8.25065 4.25H11.0923C11.5177 1.8275 13.3712 0 15.584 0C17.7968 0 19.6503 1.8275 20.0757 4.25H22.9173C23.4233 4.25 23.834 4.726 23.834 5.3125V9.5625C23.834 11.3199 22.6002 12.75 21.084 12.75ZM9.16732 6.375V9.5625C9.16732 10.1469 9.57982 10.625 10.084 10.625H21.084C21.5882 10.625 22.0007 10.1469 22.0007 9.5625V6.375H19.2507C18.7447 6.375 18.334 5.899 18.334 5.3125C18.334 3.55512 17.1002 2.125 15.584 2.125C14.0678 2.125 12.834 3.55512 12.834 5.3125C12.834 5.899 12.4233 6.375 11.9173 6.375H9.16732Z" fill="#323232"/>
<path d="M24.75 19.125H6.41667C5.91067 19.125 5.5 18.649 5.5 18.0625C5.5 17.476 5.91067 17 6.41667 17H24.75C25.256 17 25.6667 17.476 25.6667 18.0625C25.6667 18.649 25.256 19.125 24.75 19.125Z" fill="#323232"/>
<path d="M24.75 25.5H6.41667C5.91067 25.5 5.5 25.024 5.5 24.4375C5.5 23.851 5.91067 23.375 6.41667 23.375H24.75C25.256 23.375 25.6667 23.851 25.6667 24.4375C25.6667 25.024 25.256 25.5 24.75 25.5Z" fill="#323232"/>
<path d="M24.75 31.875H6.41667C5.91067 31.875 5.5 31.399 5.5 30.8125C5.5 30.226 5.91067 29.75 6.41667 29.75H24.75C25.256 29.75 25.6667 30.226 25.6667 30.8125C25.6667 31.399 25.256 31.875 24.75 31.875Z" fill="#323232"/>
</g>
<defs>
<clipPath id="clip0">
<rect width="44" height="51" fill="white"/>
</clipPath>
</defs>
</svg>
