<svg width="50" height="50" viewBox="0 0 50 50" fill="none" xmlns="http://www.w3.org/2000/svg">
<path d="M35.0866 16.0715H14.9136L25.0001 24.7172L35.0866 16.0715Z" fill="#323232"/>
<path d="M25.0002 26.7856C24.787 26.7856 24.5808 26.7093 24.4191 26.5702L13.3931 17.1194V33.9285H36.6074V17.1194L25.5814 26.5702C25.4196 26.7093 25.2134 26.7856 25.0002 26.7856Z" fill="#323232"/>
<path d="M25 0C11.193 0 0 11.193 0 25C0 38.807 11.193 50 25 50C38.807 50 50 38.807 50 25C49.9843 11.1995 38.8005 0.0156948 25 0ZM38.3929 34.8214C38.3929 35.3145 37.9931 35.7143 37.5 35.7143H12.5C12.0069 35.7143 11.6071 35.3145 11.6071 34.8214V15.1786C11.6071 14.6855 12.0069 14.2857 12.5 14.2857H37.5C37.9931 14.2857 38.3929 14.6855 38.3929 15.1786V34.8214Z" fill="#323232"/>
</svg>
