<svg width="70" height="70" viewBox="0 0 70 70" fill="none" xmlns="http://www.w3.org/2000/svg">
<path d="M70 35C70 15.668 54.332 0 35 0C15.668 0 0 15.668 0 35C0 54.332 15.668 70 35 70C35.2051 70 35.4102 70 35.6152 69.9863V42.752H28.0957V33.9883H35.6152V27.5352C35.6152 20.0566 40.1816 15.9824 46.8535 15.9824C50.0527 15.9824 52.8008 16.2148 53.5938 16.3242V24.1445H49C45.377 24.1445 44.666 25.8672 44.666 28.3965V33.9746H53.3477L52.2129 42.7383H44.666V68.6465C59.2949 64.4492 70 50.9824 70 35Z" fill="#323232"/>
</svg>
