<svg width="70" height="70" viewBox="0 0 70 70" fill="none" xmlns="http://www.w3.org/2000/svg">
<path d="M41.6992 35C41.6992 38.7 38.7 41.6992 35 41.6992C31.3 41.6992 28.3008 38.7 28.3008 35C28.3008 31.3 31.3 28.3008 35 28.3008C38.7 28.3008 41.6992 31.3 41.6992 35Z" fill="#323232"/>
<path d="M50.6673 23.1473C50.3453 22.2746 49.8315 21.4847 49.1639 20.8364C48.5156 20.1688 47.7262 19.6551 46.8531 19.333C46.1449 19.058 45.0811 18.7306 43.1216 18.6414C41.0019 18.5448 40.3664 18.5239 35.0002 18.5239C29.6334 18.5239 28.9979 18.5442 26.8788 18.6409C24.9193 18.7306 23.8549 19.058 23.1473 19.333C22.2741 19.6551 21.4843 20.1688 20.8364 20.8364C20.1689 21.4847 19.6551 22.2741 19.3325 23.1473C19.0575 23.8554 18.7301 24.9198 18.6409 26.8793C18.5443 28.9984 18.5234 29.6339 18.5234 35.0007C18.5234 40.3669 18.5443 41.0024 18.6409 43.1221C18.7301 45.0815 19.0575 46.1454 19.3325 46.8535C19.6551 47.7267 20.1683 48.5161 20.8359 49.1644C21.4843 49.832 22.2736 50.3457 23.1468 50.6678C23.8549 50.9434 24.9193 51.2707 26.8788 51.3599C28.9979 51.4566 29.6329 51.4769 34.9996 51.4769C40.3669 51.4769 41.0025 51.4566 43.1211 51.3599C45.0805 51.2707 46.1449 50.9434 46.8531 50.6678C48.6058 49.9917 49.9912 48.6063 50.6673 46.8535C50.9423 46.1454 51.2697 45.0815 51.3594 43.1221C51.4561 41.0024 51.4764 40.3669 51.4764 35.0007C51.4764 29.6339 51.4561 28.9984 51.3594 26.8793C51.2702 24.9198 50.9429 23.8554 50.6673 23.1473ZM35.0002 45.3203C29.3002 45.3203 24.6795 40.7001 24.6795 35.0001C24.6795 29.3001 29.3002 24.68 35.0002 24.68C40.6996 24.68 45.3203 29.3001 45.3203 35.0001C45.3203 40.7001 40.6996 45.3203 35.0002 45.3203ZM45.7283 26.6838C44.3964 26.6838 43.3165 25.6039 43.3165 24.272C43.3165 22.94 44.3964 21.8602 45.7283 21.8602C47.0603 21.8602 48.1401 22.94 48.1401 24.272C48.1396 25.6039 47.0603 26.6838 45.7283 26.6838Z" fill="#323232"/>
<path d="M35 0C15.673 0 0 15.673 0 35C0 54.327 15.673 70 35 70C54.327 70 70 54.327 70 35C70 15.673 54.327 0 35 0ZM54.9764 43.2859C54.8792 45.4253 54.539 46.886 54.0424 48.1645C52.9983 50.8642 50.8642 52.9983 48.1645 54.0424C46.8865 54.539 45.4253 54.8787 43.2864 54.9764C41.1433 55.0742 40.4586 55.0977 35.0005 55.0977C29.5419 55.0977 28.8578 55.0742 26.7141 54.9764C24.5752 54.8787 23.114 54.539 21.836 54.0424C20.4945 53.5377 19.28 52.7467 18.276 51.724C17.2538 50.7205 16.4629 49.5055 15.9582 48.1645C15.4615 46.8865 15.1213 45.4253 15.0241 43.2864C14.9253 41.1427 14.9023 40.4581 14.9023 35C14.9023 29.5419 14.9253 28.8573 15.0236 26.7141C15.1208 24.5747 15.4604 23.114 15.9571 21.8355C16.4618 20.4945 17.2533 19.2795 18.276 18.276C19.2795 17.2533 20.4945 16.4623 21.8355 15.9576C23.114 15.461 24.5747 15.1213 26.7141 15.0236C28.8573 14.9258 29.5419 14.9023 35 14.9023C40.4581 14.9023 41.1427 14.9258 43.2859 15.0241C45.4253 15.1213 46.886 15.461 48.1645 15.9571C49.5055 16.4618 50.7205 17.2533 51.7245 18.276C52.7467 19.28 53.5382 20.4945 54.0424 21.8355C54.5396 23.114 54.8792 24.5747 54.977 26.7141C55.0747 28.8573 55.0977 29.5419 55.0977 35C55.0977 40.4581 55.0747 41.1427 54.9764 43.2859Z" fill="#323232"/>
</svg>
