<svg width="45" height="45" viewBox="0 0 45 45" fill="none" xmlns="http://www.w3.org/2000/svg">
<g clip-path="url(#clip0)">
<path d="M10.3692 17.2453C8.39756 9.99291 13.5143 2.35812 20.9882 1.45588C21.3887 1.40747 21.6742 1.04367 21.6259 0.643057C21.5776 0.242538 21.2144 -0.0420714 20.8131 0.0052662C12.4585 1.01397 6.75262 9.51184 8.95937 17.6287C9.1873 18.0666 9.48613 18.2377 9.85596 18.142C10.2452 18.0361 10.4751 17.6347 10.3692 17.2453Z" fill="#323232"/>
<path d="M24.1703 0.00520114C23.7697 -0.042526 23.4062 0.243545 23.3585 0.644258C23.3108 1.04497 23.5969 1.40838 23.9976 1.45601C30.3021 2.20679 35.0563 7.56928 35.0563 13.9297C35.0563 17.8389 33.283 21.4578 30.1914 23.8583C28.5881 25.1018 27.606 27.0504 27.606 29.0845C27.606 30.3067 26.4398 30.8832 25.4145 30.8767V17.0281H27.0369C28.7287 17.0281 30.1051 15.6517 30.1051 13.9599C30.1051 12.2682 28.7287 10.8918 27.0369 10.8918H27.0216C25.3298 10.8918 23.9534 12.2682 23.9534 13.9599V15.5671H21.0314V13.9599C21.0314 12.2682 19.655 10.8918 17.9632 10.8918H17.9479C16.2561 10.8918 14.8797 12.2682 14.8797 13.9599C14.8797 15.6517 16.2561 17.0281 17.9479 17.0281H19.5703V30.8767C18.5438 30.8838 17.3788 30.3078 17.3788 29.0845C17.3788 27.0542 16.4341 25.1174 14.8518 23.9037C13.4779 22.8494 12.3553 21.5512 11.5152 20.0453C11.3185 19.693 10.8737 19.5665 10.5213 19.7632C10.1689 19.9598 10.0426 20.4048 10.2392 20.7571C11.1769 22.4378 12.4295 23.8864 13.9624 25.0628C15.1867 26.0021 15.9177 27.5055 15.9177 29.0845C15.9177 29.9449 16.3589 30.9374 17.013 31.5185C16.3619 32.0419 15.9177 32.9727 15.9177 33.7989C15.9177 34.6704 16.3018 35.4536 16.909 35.9894C16.3175 36.5116 15.9177 37.4056 15.9177 38.182C16.0054 39.5526 16.6672 40.4754 17.903 40.9503C18.188 43.23 20.1367 45.0001 22.4924 45.0001C24.848 45.0001 26.7966 43.2301 27.0817 40.9505C28.1838 40.5788 29.0671 39.3467 29.0671 38.182C29.0671 37.3104 28.683 36.5273 28.0758 35.9914C28.6678 35.4687 29.0671 34.576 29.0671 33.7989C29.0671 32.8772 28.6377 32.0545 27.969 31.5185C28.6418 30.922 29.0671 30.0522 29.0671 29.0845C29.0671 27.5157 29.8622 25.9627 31.0871 25.0125C34.5382 22.3329 36.5174 18.2935 36.5174 13.9297C36.5174 6.8297 31.2092 0.843446 24.1703 0.00520114ZM25.4144 13.9599C25.4144 13.0738 26.1354 12.3528 27.0215 12.3528H27.0368C27.923 12.3528 28.644 13.0738 28.644 13.9599C28.644 14.8461 27.923 15.5671 27.0368 15.5671H25.4144V13.9599ZM17.9478 15.5671C17.0616 15.5671 16.3407 14.8461 16.3407 13.9599C16.3407 13.0738 17.0616 12.3528 17.9478 12.3528H17.9631C18.8493 12.3528 19.5702 13.0738 19.5702 13.9599V15.5671H17.9478ZM21.0313 17.0281H23.9533V30.8767H21.0313V17.0281ZM22.4923 43.539C20.9983 43.539 19.7435 42.4983 19.4127 41.1039H25.5719C25.2411 42.4983 23.9864 43.539 22.4923 43.539ZM26.1449 32.3377C26.9505 32.3377 27.6059 32.9932 27.6059 33.7988C27.5225 34.6892 27.0354 35.1762 26.1449 35.2598H25.09C24.6865 35.2598 24.3595 35.5868 24.3595 35.9903C24.3595 36.3939 24.6865 36.7208 25.09 36.7208H26.1449C26.9505 36.7208 27.6059 37.3763 27.6059 38.1819C27.6059 38.9358 26.9295 39.6429 26.1449 39.6429H18.8397C17.9342 39.5411 17.4472 39.0541 17.3787 38.1819C17.4623 37.2914 17.9493 36.8044 18.8397 36.7208H21.9059C22.3094 36.7208 22.6365 36.3939 22.6365 35.9903C22.6365 35.5868 22.3095 35.2598 21.9059 35.2598H18.8397C18.0341 35.2598 17.3787 34.6044 17.3787 33.7988C17.4623 32.9083 17.9493 32.4213 18.8397 32.3377H26.1449Z" fill="#323232"/>
</g>
<defs>
<clipPath id="clip0">
<rect width="45" height="45" fill="white"/>
</clipPath>
</defs>
</svg>
