<svg width="60" height="60" viewBox="0 0 60 60" fill="none" xmlns="http://www.w3.org/2000/svg">
<path d="M38.7008 18.0852C38.0145 17.3986 36.9015 17.3989 36.2149 18.0852L26.4844 27.8154L23.7851 25.1164C23.0987 24.43 21.9857 24.4301 21.2993 25.1165L16.3276 30.0882C15.6411 30.7745 15.6411 31.8876 16.3276 32.5741L25.2416 41.4881C25.9275 42.1741 27.0411 42.1745 27.7275 41.4881L43.6727 25.5428C44.3588 24.857 44.3591 23.7433 43.6727 23.0569L38.7008 18.0852ZM26.4844 37.7593L20.0564 31.3311L22.5422 28.8453L25.2415 31.5443C25.9278 32.2307 27.0409 32.2306 27.7273 31.5442L37.4578 21.814L39.9436 24.2998L26.4844 37.7593Z" fill="#00B11C"/>
<path d="M30 0C13.4814 0 0 13.4823 0 30C0 46.5186 13.4823 60 30 60C46.5186 60 60 46.5177 60 30C60 13.4814 46.5177 0 30 0ZM30 56.4844C15.3964 56.4844 3.51562 44.6036 3.51562 30C3.51562 15.3964 15.3964 3.51562 30 3.51562C44.6036 3.51562 56.4844 15.3964 56.4844 30C56.4844 44.6036 44.6036 56.4844 30 56.4844Z" fill="#00B11C"/>
</svg>
