<svg width="70" height="70" viewBox="0 0 70 70" fill="none" xmlns="http://www.w3.org/2000/svg">
<circle cx="35" cy="35" r="35" fill="#FFAC4B"/>
<g clip-path="url(#clip0)">
<path d="M37.5671 42.73C36.8552 43.1666 35.9434 43.4071 34.9998 43.4071C34.0562 43.4071 33.1444 43.1667 32.4325 42.73L20.8094 35.6014C20.8094 35.6014 19.7603 34.9583 19.7603 36.4151C19.7603 38.0694 19.7603 43.0321 19.7603 43.0321C19.7603 43.0983 19.7603 43.4305 19.7603 43.5334C19.7603 47.2833 26.5831 51.3258 34.9995 51.3258C43.4159 51.3258 50.2387 47.2834 50.2387 43.5334C50.2387 43.4305 50.2387 43.0983 50.2387 43.0321C50.2387 43.0321 50.2387 37.7684 50.2387 36.0138C50.2387 34.8445 49.4929 35.4158 49.4929 35.4158L37.5671 42.73Z" fill="white"/>
<path d="M54.3302 29.9311C55.2233 29.3834 55.2233 28.4871 54.3302 27.9393L36.6238 19.085C35.7307 18.5373 34.2692 18.5373 33.3761 19.085L15.6698 27.9393C14.7767 28.487 14.7767 29.3833 15.6698 29.9311L33.3761 40.7906C34.2692 41.3383 35.7307 41.3383 36.6238 40.7906" fill="white"/>
<path d="M53.5984 46.0274C53.5984 43.029 53.5984 34.034 53.5984 34.034C53.5984 34.034 53.6068 33.4659 53.2697 33.6535C52.9993 33.804 52.3365 34.1735 52.103 34.3766C51.8334 34.6109 51.8942 35.1368 51.8942 35.1368C51.8942 35.1368 51.8942 43.3048 51.8942 46.0274C51.8942 46.182 51.7613 46.2558 51.698 46.2931C51.0859 46.6529 50.6743 47.3171 50.6743 48.0785C50.6743 49.2229 51.6019 50.1506 52.7464 50.1506C53.8907 50.1506 54.8183 49.2229 54.8183 48.0785C54.8183 47.3142 54.4037 46.6479 53.7877 46.2889C53.7265 46.2532 53.5984 46.1819 53.5984 46.0274Z" fill="white"/>
</g>
<defs>
<clipPath id="clip0">
<rect width="40" height="40" fill="white" transform="translate(15 15)"/>
</clipPath>
</defs>
</svg>
