<svg width="40" height="40" viewBox="0 0 40 40" fill="none" xmlns="http://www.w3.org/2000/svg">
<path d="M39.9439 22.2644C39.9438 22.2642 39.9438 22.2641 39.9437 22.2639L32.3915 3.30105C32.2312 2.89814 31.7745 2.70144 31.3716 2.86172C31.3713 2.86182 31.371 2.86192 31.3707 2.86212L0.732602 15.0619C0.607655 15.1159 0.499296 15.2021 0.418517 15.3116C0.163716 15.444 0.00274824 15.7061 0 15.9932V36.4087C0 36.8423 0.351578 37.1939 0.785211 37.1939H33.7641C34.1977 37.1939 34.5493 36.8423 34.5493 36.4087V25.2587L39.5055 23.2847C39.9083 23.124 40.1045 22.6672 39.9439 22.2644ZM32.9788 35.6235H1.57042V16.7784H32.9788V35.6235ZM13.1012 15.2119L26.2488 9.97298C27.4222 11.2064 29.0481 11.9073 30.7504 11.914L32.0617 15.2119H13.1012ZM34.5493 23.572V15.9932C34.5493 15.5596 34.1977 15.208 33.7641 15.208H33.7515L32.0876 11.0291C32.0692 10.9942 32.0477 10.9611 32.0232 10.9302C31.939 10.552 31.5888 10.2939 31.2027 10.3255C29.6187 10.4699 28.0692 9.80269 27.0858 8.55254C26.8411 8.25052 26.4111 8.17544 26.0784 8.37665C26.0411 8.38107 26.0041 8.38794 25.9677 8.39706L9.91642 14.7887C9.72218 14.8648 9.56681 15.0159 9.48534 15.208H4.61076L31.2231 4.61156L38.195 22.1178L34.5493 23.572Z" fill="#00B11C"/>
<path d="M3.70151 30.3224C5.226 30.773 6.41893 31.9645 6.8714 33.4884C6.97064 33.821 7.27657 34.0489 7.62364 34.049C7.66437 34.0465 7.70481 34.0404 7.74456 34.031C7.77979 34.041 7.81582 34.0483 7.85213 34.0529H26.6972C26.7296 34.0487 26.7616 34.0422 26.793 34.0333C27.1853 34.1287 27.5806 33.8882 27.6761 33.4958C27.6764 33.4944 27.6768 33.493 27.6771 33.4915C28.1284 31.9661 29.3216 30.7729 30.847 30.3216C31.217 30.2086 31.4468 29.8399 31.3857 29.4579C31.3962 29.4198 31.4037 29.381 31.4084 29.3417V23.06C31.4038 23.0207 31.396 22.9818 31.3849 22.9438C31.4464 22.5617 31.2165 22.1928 30.8462 22.0801C29.3208 21.6289 28.1279 20.4353 27.6779 18.9094C27.5643 18.5369 27.192 18.3065 26.8079 18.3707C26.7716 18.3606 26.7346 18.3533 26.6972 18.3488H7.85213C7.81258 18.3535 7.77341 18.3613 7.73514 18.3723C7.35323 18.3115 6.98477 18.5412 6.8714 18.911C6.41981 20.4361 5.22678 21.6289 3.70151 22.0801C3.33158 22.1931 3.10171 22.5618 3.16285 22.9438C3.15265 22.982 3.14529 23.0208 3.14087 23.06V29.3417C3.14538 29.3786 3.15275 29.4151 3.16285 29.4508C3.09847 29.8353 3.32883 30.2081 3.70151 30.3224ZM4.71129 23.3788C6.28799 22.7455 7.53766 21.4959 8.17093 19.9192H26.3776C27.0112 21.4959 28.2611 22.7455 29.838 23.3788V29.0229C28.2618 29.6569 27.0123 30.9063 26.3784 32.4825H8.17093C7.53697 30.9063 6.2875 29.6569 4.71129 29.0229V23.3788Z" fill="#00B11C"/>
<path d="M17.2747 30.9121C19.8767 30.9121 21.986 28.8029 21.986 26.2009C21.986 23.5989 19.8767 21.4896 17.2747 21.4896C14.6727 21.4896 12.5635 23.5989 12.5635 26.2009C12.566 28.8018 14.6738 30.9096 17.2747 30.9121ZM17.2747 23.06C19.0094 23.06 20.4156 24.4663 20.4156 26.2009C20.4156 27.9355 19.0094 29.3417 17.2747 29.3417C15.5401 29.3417 14.1339 27.9355 14.1339 26.2009C14.1339 24.4663 15.5401 23.06 17.2747 23.06Z" fill="#00B11C"/>
<path d="M8.63729 27.3787C9.28774 27.3787 9.8151 26.8513 9.8151 26.2009C9.8151 25.5504 9.28774 25.0231 8.63729 25.0231C7.98684 25.0231 7.45947 25.5504 7.45947 26.2009C7.45947 26.8514 7.98684 27.3787 8.63729 27.3787ZM8.63729 25.8083C8.8541 25.8083 9.02989 25.9841 9.02989 26.2009C9.02989 26.4177 8.8541 26.5935 8.63729 26.5935C8.42047 26.5935 8.24468 26.4177 8.24468 26.2009C8.24468 25.9841 8.42047 25.8083 8.63729 25.8083Z" fill="#00B11C"/>
<path d="M25.9119 27.3787C26.5624 27.3787 27.0898 26.8513 27.0898 26.2009C27.0898 25.5504 26.5624 25.0231 25.9119 25.0231C25.2615 25.0231 24.7341 25.5504 24.7341 26.2009C24.7341 26.8514 25.2615 27.3787 25.9119 27.3787ZM25.9119 25.8083C26.1288 25.8083 26.3046 25.9841 26.3046 26.2009C26.3046 26.4177 26.1288 26.5935 25.9119 26.5935C25.6951 26.5935 25.5193 26.4177 25.5193 26.2009C25.5193 25.9841 25.6951 25.8083 25.9119 25.8083Z" fill="#00B11C"/>
</svg>
