<svg width="170" height="170" viewBox="0 0 170 170" fill="none" xmlns="http://www.w3.org/2000/svg">
<path d="M85 118.398C85.9708 118.398 86.7578 117.611 86.7578 116.641C86.7578 115.67 85.9708 114.883 85 114.883C84.0292 114.883 83.2422 115.67 83.2422 116.641C83.2422 117.611 84.0292 118.398 85 118.398Z" fill="#2A87F7"/>
<path d="M113.83 63.5262L85.7045 51.2215C85.2554 51.025 84.7446 51.025 84.2955 51.2215C67.0487 58.7669 56.2007 63.513 56.1828 63.5207C56.1654 63.536 55.1172 63.947 55.1172 65.1367V75.9859C53.0713 76.7115 51.6016 78.6653 51.6016 80.957V87.9883C51.6016 88.9591 52.3887 89.7461 53.3594 89.7461H60.3906C61.3613 89.7461 62.1484 88.9591 62.1484 87.9883V80.957C62.1484 78.6655 60.6787 76.7115 58.6328 75.9859V67.8244L69.1797 72.4386V84.4726C69.1797 85.1677 69.5893 85.7975 70.2245 86.0794C70.5619 86.229 78.5615 89.7461 85 89.7461C91.4385 89.7461 99.4381 86.229 99.7755 86.0794C100.411 85.7975 100.82 85.1677 100.82 84.4726V72.4386L113.83 66.7472C114.47 66.4674 114.883 65.8352 114.883 65.1367C114.883 64.4381 114.469 63.8062 113.83 63.5262ZM58.6328 86.2304H55.1172V80.957C55.1172 79.9877 55.9057 79.1992 56.875 79.1992C57.8443 79.1992 58.6328 79.9877 58.6328 80.957V86.2304ZM97.3047 83.2988C95.0225 84.2076 89.443 86.2304 85 86.2304C80.567 86.2304 74.9796 84.2065 72.6953 83.2981V73.9767L84.2955 79.0519C84.7442 79.2482 85.2554 79.2484 85.7045 79.0519L97.3047 73.9767V83.2988ZM85 75.5227C81.638 74.0518 64.6255 66.6089 61.2606 65.1367L85 54.7506L108.739 65.1367C105.649 66.4886 86.8004 74.735 85 75.5227Z" fill="#2A87F7"/>
<path d="M121.211 75.6836H106.094C105.123 75.6836 104.336 76.4706 104.336 77.4414C104.336 78.4122 105.123 79.1992 106.094 79.1992H121.211C122.182 79.1992 122.969 78.4122 122.969 77.4414C122.969 76.4706 122.182 75.6836 121.211 75.6836Z" fill="#2A87F7"/>
<path d="M121.211 82.7148H106.094C105.123 82.7148 104.336 83.5018 104.336 84.4727C104.336 85.4435 105.123 86.2305 106.094 86.2305H121.211C122.182 86.2305 122.969 85.4435 122.969 84.4727C122.969 83.5018 122.182 82.7148 121.211 82.7148Z" fill="#2A87F7"/>
<path d="M85 43.5156C85.9708 43.5156 86.7578 42.7286 86.7578 41.7578C86.7578 40.787 85.9708 40 85 40C84.0292 40 83.2422 40.787 83.2422 41.7578C83.2422 42.7286 84.0292 43.5156 85 43.5156Z" fill="#2A87F7"/>
<path d="M128.242 40H92.9102C91.9395 40 91.1523 40.787 91.1523 41.7578C91.1523 42.7287 91.9395 43.5156 92.9102 43.5156H126.484V97.3047H43.5156V43.5156H77.0898C78.0605 43.5156 78.8477 42.7287 78.8477 41.7578C78.8477 40.787 78.0605 40 77.0898 40H41.7578C40.7871 40 40 40.787 40 41.7578V109.609C40 110.58 40.7871 111.367 41.7578 111.367H75.8483L72.9961 126.484H67.4219C66.4512 126.484 65.6641 127.271 65.6641 128.242C65.6641 129.213 66.4512 130 67.4219 130H102.578C103.549 130 104.336 129.213 104.336 128.242C104.336 127.271 103.549 126.484 102.578 126.484H97.0039L94.1517 111.367H128.242C129.213 111.367 130 110.58 130 109.609V41.7578C130 40.787 129.213 40 128.242 40ZM76.5736 126.484L79.4258 111.367H90.574L93.4263 126.484H76.5736ZM126.484 107.852C124.627 107.852 43.7121 107.852 43.5156 107.852V100.82H126.484V107.852Z" fill="#2A87F7"/>
<circle cx="85" cy="85" r="82.5" stroke="#2A87F7" stroke-width="5"/>
</svg>
