<svg width="170" height="170" viewBox="0 0 170 170" fill="none" xmlns="http://www.w3.org/2000/svg">
<path d="M124.961 40.7665H45.0371C42.323 40.7665 40.1152 42.9743 40.1152 45.6884V96.5805C40.1152 99.2946 42.323 101.502 45.0371 101.502H48.2645C46.8055 104.512 45.9301 107.873 45.7895 111.42C42.882 113.048 40.9133 116.159 40.9133 119.72C40.9133 124.5 44.27 129.234 51.7027 129.234C52.8664 129.234 53.8121 128.288 53.8121 127.124C53.8121 120.795 53.8121 117.677 53.8121 112.316C53.8437 108.172 55.366 104.385 57.848 101.502H81.7262C84.3031 104.491 85.7234 108.291 85.7551 112.316V127.124C85.7551 128.288 86.7008 129.234 87.8645 129.234C91.4272 129.234 94.6816 128.585 97.0786 124.956C101.45 128.201 106.491 127.927 110.69 123.33C118.181 124.23 122.214 119.264 122.359 113.761C122.36 113.749 122.36 113.737 122.36 113.724V101.502H124.961C127.675 101.502 129.883 99.2946 129.883 96.5805V45.6884C129.883 42.9743 127.675 40.7665 124.961 40.7665ZM88.5676 126.421C88.5676 120.889 88.5676 119.663 88.5676 113.02C93.3566 113.02 95.8414 116.373 95.8414 119.72C95.8414 122.998 93.4406 126.421 88.5676 126.421ZM69.7836 93.1493C60.1937 93.1493 52.2121 100.592 51.1262 110.207C50.3218 110.207 49.6545 110.184 48.6758 110.372C49.6988 99.2524 58.793 90.5759 69.7836 90.5759C80.7594 90.5759 89.8677 99.2457 90.8914 110.372C89.9169 110.185 89.2552 110.207 88.441 110.207C87.3519 100.481 79.2905 93.1493 69.7836 93.1493ZM50.9996 126.421C46.1175 126.421 43.7258 122.979 43.7258 119.72C43.7258 116.368 46.2046 113.02 50.9996 113.02V126.421ZM84.0113 92.5763C80.0281 89.5528 75.1027 87.7634 69.7836 87.7634C64.4609 87.7634 59.5391 89.5528 55.5523 92.5763H49.843C49.6496 92.5763 49.4914 92.418 49.4914 92.2247V50.0407C49.4914 49.8473 49.6496 49.6891 49.843 49.6891H120.155C120.349 49.6891 120.507 49.8473 120.507 50.0407V92.2247C120.507 92.418 120.349 92.5763 120.155 92.5763H84.0113ZM60.9945 98.6899C63.5187 96.9673 66.5387 95.9618 69.7836 95.9618C72.9617 95.9618 75.9992 96.9145 78.5902 98.6899H60.9945ZM109.197 120.705C108.058 121.133 106.794 120.55 106.367 119.415C105.83 117.96 106.911 116.447 108.427 116.447C109.317 116.447 110.161 116.992 110.488 117.878C110.916 119.011 110.334 120.285 109.197 120.705ZM119.548 113.698C119.379 117.099 117.398 120.389 113.034 120.615C113.307 119.983 113.444 119.316 113.444 118.648C113.444 115.159 109.945 112.732 106.677 113.952C104.078 114.919 102.768 117.808 103.734 120.399C104.202 121.651 105.13 122.649 106.346 123.205C106.394 123.225 106.439 123.246 106.487 123.263C103.672 125.057 100.77 124.412 98.2883 122.328C98.527 121.499 98.6536 120.624 98.6536 119.721C98.6536 116.159 96.6848 113.048 93.7774 111.42C93.6368 107.873 92.7614 104.512 91.3024 101.503H119.547L119.548 113.698ZM127.071 96.5805C127.071 97.7442 126.125 98.6899 124.961 98.6899H89.7137C88.9437 97.5157 88.0754 96.4083 87.1262 95.3888H120.155C121.899 95.3888 123.32 93.9684 123.32 92.2247V50.0407C123.32 48.2969 121.899 46.8766 120.155 46.8766H49.843C48.0992 46.8766 46.6789 48.2969 46.6789 50.0407V92.2247C46.6789 93.9684 48.0992 95.3888 49.843 95.3888H52.441C51.4918 96.4083 50.6234 97.5157 49.8535 98.6899H45.0371C43.8734 98.6899 42.9277 97.7442 42.9277 96.5805V45.6884C42.9277 44.5247 43.8734 43.579 45.0371 43.579H124.961C126.125 43.579 127.071 44.5247 127.071 45.6884V96.5805Z" fill="#2A87F7"/>
<path d="M61.374 98.5C60.999 98.5 57.8262 101.5 57.8262 101.5H81.6238C81.6238 101.5 79.7243 99.4658 78.2488 98.5C72.735 94.8909 61.749 98.5 61.374 98.5Z" fill="#F4F4F4"/>
<path d="M85.0008 53.1063C75.0586 53.1063 66.9727 61.1923 66.9727 71.1344C66.9727 81.0731 75.0586 89.1626 85.0008 89.1626C94.943 89.1626 103.029 81.0731 103.029 71.1344C103.029 61.1923 94.943 53.1063 85.0008 53.1063ZM85.0008 86.3501C76.609 86.3501 69.7852 79.5227 69.7852 71.1344C69.7852 62.7427 76.609 55.9188 85.0008 55.9188C93.3926 55.9188 100.216 62.7427 100.216 71.1344C100.216 79.5227 93.3926 86.3501 85.0008 86.3501Z" fill="#2A87F7"/>
<path d="M94.2672 69.3063L81.8359 62.1309C80.429 61.3171 78.6719 62.3433 78.6719 63.9555V78.3098C78.6719 79.9362 80.4269 80.9409 81.8359 80.138L94.2672 72.9591C95.6657 72.1575 95.6752 70.1325 94.2672 69.3063ZM81.4844 77.0934V65.1755L91.8062 71.1345L81.4844 77.0934Z" fill="#2A87F7"/>
<path d="M54.4141 54.5126V62.9501C54.4141 64.8081 57.2266 64.8109 57.2266 62.9501V54.5126C57.2266 52.6546 54.4141 52.6518 54.4141 54.5126Z" fill="#2A87F7"/>
<path d="M54.4141 68.2235V69.1728C54.4141 71.0308 57.2266 71.0336 57.2266 69.1728V68.2235C57.2266 66.3655 54.4141 66.3627 54.4141 68.2235Z" fill="#2A87F7"/>
<circle cx="85" cy="85" r="82.5" stroke="#2A87F7" stroke-width="5"/>
</svg>
