<svg width="170" height="170" viewBox="0 0 170 170" fill="none" xmlns="http://www.w3.org/2000/svg">
<circle cx="85" cy="85" r="82.5" stroke="#fff" stroke-width="5"/>
<path d="M47.0312 121.66C47.0312 121.783 47.0383 121.917 47.0488 122.043H41.7754C41.7648 121.917 41.7578 121.783 41.7578 121.66C41.7578 116.151 51.4398 111.683 63.3789 111.683C64.2719 111.683 65.1508 111.707 66.0156 111.757C55.3211 112.358 47.0312 116.562 47.0312 121.66Z" fill="#fff"/>
<path d="M66.0156 58.0868C55.3211 58.6879 47.0312 62.8891 47.0312 67.9903V122.043H41.7578V67.9903C41.7578 62.4778 51.4398 58.0129 63.3789 58.0129C64.2719 58.0129 65.1508 58.0375 66.0156 58.0868Z" fill="#fff"/>
<path d="M95.1461 106.709C86.1317 101.506 86.4228 101.674 81.6461 98.9149C79.9976 97.9632 77.9512 99.1575 77.9512 101.045V103.132C77.9512 104.62 77.9512 105.081 77.9512 105.041V116.634C77.9512 118.548 80.0321 119.71 81.6426 118.764C82.3278 118.366 94.5611 111.308 95.1461 110.97C96.7914 110.023 96.7826 107.646 95.1461 106.709ZM80.7637 116.025C80.7637 110.838 80.7637 107.231 80.7637 101.654C88.0326 105.852 80.0939 101.264 93.2125 108.84C92.7252 109.121 83.155 114.648 80.7637 116.025Z" fill="#fff"/>
<path d="M114.798 57.3215C108.629 47.0488 97.5789 40.1934 85 40.1934C72.4211 40.1934 61.3715 47.0488 55.2016 57.3215C46.4406 58.9176 40.3516 63.0379 40.3516 67.9914V122.044C40.3516 122.822 41.0055 123.45 41.7754 123.45H69.8793C73.3689 127.156 78.9123 129.807 85 129.807C91.0855 129.807 96.6237 127.163 100.121 123.45H128.225C128.965 123.45 129.648 122.863 129.648 122.044V67.9914C129.648 63.0379 123.559 58.9176 114.798 57.3215ZM85 43.0059C101.816 43.0059 115.776 56.4071 117.094 73.5531H112.116C110.834 59.4351 99.2921 48.1984 85 48.1984C70.8169 48.1984 59.1827 59.3823 57.8875 73.5531H52.9059C54.2207 56.4471 68.1457 43.0059 85 43.0059ZM117.709 76.3656C118.473 76.3656 119.253 76.4939 120.009 76.7734C122.579 77.7121 124.414 80.1801 124.414 83.0664V90.9519C124.414 94.6469 121.408 97.6527 117.709 97.6527H112.236C112.236 95.2628 112.236 78.7837 112.236 76.3656H117.709ZM100.771 56.9664C93.4023 57.884 87.5594 60.5207 85 63.9977C82.4441 60.5242 76.6047 57.891 69.2465 56.9699C73.5004 53.2539 78.9988 51.0109 85 51.0109C90.8395 51.0109 96.366 53.1098 100.771 56.9664ZM57.7645 76.3656V97.6527H52.2906C48.5922 97.6527 45.5863 94.6469 45.5863 90.9519V83.0664C45.5863 79.356 48.6112 76.3656 52.2906 76.3656H57.7645ZM43.1641 67.9914C43.1641 65.1965 47.1086 62.1836 53.4613 60.5805C51.5559 64.6305 50.3676 69.1023 50.0687 73.8168C46.7605 74.6078 44.1203 77.132 43.1641 80.3734V67.9914ZM43.1641 93.6449C44.3277 97.5824 47.977 100.465 52.2906 100.465H58.4676C59.6312 100.465 60.577 99.5195 60.577 98.3559V80.4684V76.2004C60.577 69.8195 62.8902 63.9836 66.6977 59.5398C76.8086 60.2816 83.5938 64.3246 83.5938 67.9914V87.5945C78.6578 87.9215 73.8168 89.9641 70.0516 93.7293C65.5234 98.2574 63.4844 104.346 63.9309 110.281C63.748 110.277 63.5617 110.277 63.3789 110.277C54.5547 110.277 47.0418 112.612 43.1641 116.124V93.6449ZM43.3363 120.638C44.5738 116.883 52.4594 113.09 63.3789 113.09C63.6988 113.09 64.0188 113.093 64.3352 113.1C64.8977 115.755 65.977 118.321 67.566 120.638H43.3363ZM95.8492 123.45C89.4227 128.179 80.5773 128.179 74.1508 123.45C59.9853 113.062 67.2964 90.3613 85 90.3613C102.653 90.3613 110.062 113.028 95.8492 123.45ZM102.434 120.638C104.023 118.321 105.102 115.755 105.665 113.1C105.981 113.093 106.301 113.09 106.621 113.09C117.541 113.09 125.426 116.883 126.664 120.638H102.434ZM126.836 116.124C122.958 112.612 115.445 110.277 106.621 110.277C106.438 110.277 106.252 110.277 106.069 110.281C106.516 104.346 104.477 98.2574 99.9484 93.7293C96.1832 89.9641 91.3422 87.9215 86.4062 87.5945V67.9914C86.4062 64.3246 93.1984 60.2781 103.316 59.5398C107.268 64.1453 109.423 70.0023 109.423 76.2004V98.3559C109.423 99.5195 110.369 100.465 111.532 100.465H117.709C122.023 100.465 125.672 97.5824 126.836 93.6449V116.124ZM126.836 80.3734C125.88 77.132 123.239 74.6078 119.931 73.8168C119.632 69.1023 118.444 64.6305 116.539 60.5805C122.891 62.1836 126.836 65.1965 126.836 67.9914V80.3734Z" fill="#fff"/>
<path d="M91.5385 65.1578C88.7865 67.8866 88.0827 72.4474 88.3464 75.0859C88.5162 76.9436 91.3139 76.6943 91.1448 74.8328C91.1448 72.0899 91.4823 69.174 93.5178 67.1582C94.8404 65.844 92.859 63.8542 91.5385 65.1578Z" fill="#fff"/>
<path d="M98.1007 62.4473C97.7245 62.4719 97.3589 62.5071 97.0073 62.5563C95.278 62.8091 95.4808 65.3547 97.2042 65.3547C97.271 65.3547 97.3378 65.3512 97.4046 65.3407C97.6788 65.302 97.9671 65.2739 98.2624 65.2563C100.12 65.147 99.9534 62.3383 98.1007 62.4473Z" fill="#fff"/>
</svg>
