<svg width="50" height="50" viewBox="0 0 50 50" fill="none" xmlns="http://www.w3.org/2000/svg">
<path d="M29.4941 28.8008L27.5824 32.4616C27.3732 32.8627 26.8975 33.0441 26.4742 32.8841C22.1577 31.2501 18.7506 27.8422 17.118 23.5252C16.958 23.1019 17.1393 22.6263 17.5404 22.417L21.2012 20.5062L20.0468 13.9654C18.6643 13.1872 16.9728 13.2016 15.6034 14.0024C14.234 14.8033 13.3926 16.2708 13.3931 17.8572C13.4048 28.2075 21.7928 36.5955 32.1431 36.6072C33.7287 36.6072 35.1957 35.7663 35.9966 34.3973C36.7974 33.0288 36.8122 31.3377 36.0349 29.9553L29.4941 28.8008Z" fill="#323232"/>
<path d="M25 0C11.193 0 0 11.193 0 25C0 38.807 11.193 50 25 50C38.807 50 50 38.807 50 25C49.9843 11.1995 38.8005 0.0156948 25 0ZM32.1429 38.3929C20.8064 38.3802 11.6198 29.1936 11.6071 17.8571C11.6076 15.5457 12.8836 13.4229 14.9248 12.3383C16.9665 11.254 19.4397 11.3848 21.3553 12.6787C21.5559 12.8139 21.6928 13.0249 21.7346 13.2634L23.0739 20.8409C23.1415 21.2245 22.9531 21.6073 22.6079 21.7874L19.0901 23.625C20.5287 26.8773 23.1271 29.4769 26.3785 30.9169L28.2144 27.3948C28.3944 27.0495 28.7772 26.8611 29.1609 26.9287L36.7392 28.268C36.9773 28.3098 37.1878 28.4463 37.323 28.6464C38.6161 30.562 38.7464 33.0353 37.6617 35.076C36.5766 37.1172 34.4543 38.3929 32.1429 38.3929Z" fill="#323232"/>
</svg>
