<svg width="40" height="40" viewBox="0 0 40 40" fill="none" xmlns="http://www.w3.org/2000/svg">
<path d="M39.8269 1.20576C39.7664 0.661017 39.3364 0.230719 38.7914 0.170294C29.5177 -0.859674 21.6124 2.85004 15.1641 9.48792C13.3187 11.3876 11.718 13.3984 10.3518 15.3391C8.03944 15.2451 5.47566 16.2912 3.65804 18.1088L0.343216 21.4237C-0.031845 21.7987 -0.108139 22.3792 0.157059 22.8384C0.422256 23.2977 0.962723 23.5214 1.47542 23.3844C2.24446 23.1778 3.49416 22.9376 4.69472 22.8818C5.13356 22.8613 5.49824 22.8677 5.80128 22.8909C5.06978 24.2978 4.50917 25.4764 4.32332 25.7715C4.03218 26.2347 4.09962 26.8375 4.48659 27.2244L6.40462 29.1425C3.61317 32.9495 3.56709 34.8993 3.57686 35.1755C3.59731 35.7605 4.05354 36.3086 4.80916 36.3086C5.46345 36.3086 7.33998 36.0309 10.7561 33.494L12.7736 35.5115C13.1633 35.9012 13.7722 35.9665 14.236 35.6686C14.5516 35.4657 15.6609 34.9286 16.9912 34.2334C17.0131 35.2249 16.8786 36.6809 16.5865 38.6545C16.4205 39.7739 17.7813 40.4477 18.5744 39.6549L21.8892 36.34C23.5985 34.6307 24.5897 32.092 24.5165 29.7104C26.5609 28.2819 28.6876 26.5967 30.6734 24.6494C37.2481 18.2019 40.8437 10.3565 39.8269 1.20576ZM37.585 2.41181C37.7721 4.93867 37.5725 7.38801 36.9912 9.75831C35.5474 9.30359 34.1359 8.41035 32.8612 7.13593C31.5819 5.85633 30.6868 4.43909 30.234 2.99012C32.6033 2.4173 35.0542 2.22321 37.585 2.41181ZM4.54182 20.5399L5.31514 19.7662C6.2505 18.8312 7.46693 18.1577 8.67665 17.8549C8.04463 18.858 7.48128 19.816 6.98445 20.7001C6.21693 20.5307 5.36366 20.4993 4.54182 20.5399ZM6.75954 26.1829C7.01314 25.6824 7.31984 25.0549 7.88289 23.9911L9.42555 25.5341C8.85152 26.1499 8.33333 26.7349 7.86641 27.2894L6.75954 26.1829ZM12.4904 25.7346C13.3443 24.881 14.1631 24.725 15.1803 24.7031C15.158 25.6943 14.999 26.5408 14.1478 27.392C10.5095 31.0303 8.01564 32.655 6.52425 33.3801C7.26002 31.8601 8.88905 29.3359 12.4904 25.7346ZM13.8085 33.2318L12.6 32.023C13.1517 31.5543 13.7349 31.0346 14.3502 30.4584L15.9923 32.1005C14.9126 32.677 14.4622 32.894 13.8085 33.2318ZM20.2315 34.6826L19.2934 35.621C19.3694 34.4843 19.3432 33.656 19.2357 33.017C20.0975 32.5317 21.0335 31.9815 22.0144 31.366C21.7348 32.605 21.1065 33.808 20.2315 34.6826ZM18.1258 30.9195L16.0247 28.8181C17.5795 27.1072 17.5216 25.4587 17.5216 23.5327C17.5216 22.8854 16.997 22.3608 16.3497 22.3608C14.5504 22.3608 12.8188 22.2644 11.0643 23.858L9.05781 21.8515C14.5369 12.2437 20.8703 6.16089 27.986 3.65601C28.5494 5.47883 29.6459 7.23511 31.2041 8.79334C32.755 10.3445 34.5031 11.4383 36.3179 12.0038C33.7984 19.0805 27.7172 25.4099 18.1258 30.9195Z" fill="#323232"/>
</svg>
