<svg width="43" height="31" viewBox="0 0 43 31" fill="none" xmlns="http://www.w3.org/2000/svg">
<g clip-path="url(#clip0)">
<path fill-rule="evenodd" clip-rule="evenodd" d="M2.67108 4.85129C2.69774 4.82579 2.80204 4.74717 3.09995 4.68208C3.52051 4.59021 4.159 4.56764 5.03819 4.66784C6.78651 4.86714 9.17743 5.51374 12.005 6.58564L12.9571 4.11789C10.0326 3.00927 7.40612 2.27831 5.34265 2.04309C4.31597 1.92606 3.34995 1.92201 2.52633 2.10196C1.70562 2.28125 0.853949 2.68646 0.363338 3.52666L0.363153 3.52697C-0.0277682 4.19686 -0.062274 4.93373 0.0688457 5.60029C0.197712 6.25539 0.497606 6.91476 0.883107 7.55172C1.6545 8.82626 2.91511 10.2478 4.5031 11.7253C7.69497 14.695 12.4352 18.0972 17.9658 21.2563C23.4966 24.4154 28.8448 26.7755 33.0402 28.025C35.1275 28.6465 37.0019 29.0154 38.5028 29.0389C39.2527 29.0505 39.9791 28.9776 40.616 28.7608C41.2638 28.5401 41.8906 28.1428 42.2813 27.4734L42.2817 27.4728C42.7785 26.6207 42.6994 25.674 42.4369 24.8715C42.1732 24.0655 41.6729 23.2279 41.0402 22.3938C39.7682 20.7175 37.7649 18.8014 35.2729 16.8191L33.6049 18.8798C36.0162 20.7979 37.8279 22.5558 38.9099 23.982C39.4543 24.6992 39.7654 25.2702 39.9017 25.6864C39.9984 25.9825 39.9818 26.1142 39.9726 26.1504C39.9533 26.1686 39.8942 26.213 39.75 26.262C39.5088 26.3442 39.1189 26.4062 38.5446 26.3971C37.3969 26.3793 35.7909 26.0853 33.8072 25.4946C29.8604 24.3191 24.7035 22.0555 19.2965 18.9671C13.8895 15.8786 9.32953 12.5923 6.32712 9.79887C4.81793 8.39472 3.75787 7.16606 3.16861 6.19246C2.87379 5.70534 2.73337 5.34118 2.68486 5.09462C2.65619 4.94882 2.66492 4.87692 2.67108 4.85129ZM2.66348 4.85971C2.66338 4.85966 2.66426 4.85838 2.66639 4.85605C2.66463 4.85859 2.66358 4.85977 2.66348 4.85971ZM39.9691 26.1613C39.9689 26.1613 39.9695 26.1597 39.9708 26.1568C39.9699 26.1599 39.9691 26.1613 39.9691 26.1613ZM39.9769 26.1462C39.9791 26.1431 39.9804 26.1415 39.9806 26.1417C39.9806 26.1417 39.9796 26.1433 39.9769 26.1462ZM2.67261 4.84557C2.67382 4.84164 2.6747 4.83987 2.67485 4.83997C2.67499 4.84007 2.6744 4.84205 2.67261 4.84557Z" fill="#2A87F7"/>
<path fill-rule="evenodd" clip-rule="evenodd" d="M21.3225 3.6108C14.6984 3.6108 9.32863 8.93377 9.32863 15.5C9.32863 22.0662 14.6984 27.3893 21.3225 27.3893C27.9464 27.3893 33.3161 22.0662 33.3161 15.5C33.3161 8.93377 27.9464 3.6108 21.3225 3.6108ZM6.66333 15.5C6.66333 7.4746 13.2264 0.96875 21.3225 0.96875C29.4184 0.96875 35.9816 7.4746 35.9816 15.5C35.9816 23.5253 29.4184 30.0312 21.3225 30.0312C13.2264 30.0312 6.66333 23.5253 6.66333 15.5Z" fill="#2A87F7"/>
</g>
<defs>
<clipPath id="clip0">
<rect width="43" height="31" fill="white"/>
</clipPath>
</defs>
</svg>
