<svg width="70" height="70" viewBox="0 0 70 70" fill="none" xmlns="http://www.w3.org/2000/svg">
<circle cx="35" cy="35" r="35" fill="#FFAC4B"/>
<path d="M35 15C23.9716 15 15 23.9716 15 35C15 46.0284 23.9716 55 35 55C46.0284 55 55 46.0284 55 35C55 23.9716 46.0284 15 35 15ZM44.5117 45.3448C44.1867 45.6699 43.7601 45.8334 43.3334 45.8334C42.9068 45.8334 42.4799 45.6699 42.1552 45.3448L33.8217 37.0117C33.5083 36.7001 33.3334 36.2766 33.3334 35.8334V25C33.3334 24.0784 34.0799 23.3334 35 23.3334C35.9201 23.3334 36.6666 24.0784 36.6666 25V35.1434L44.5117 42.9883C45.1633 43.6401 45.1633 44.6933 44.5117 45.3448Z" fill="white"/>
</svg>
