<svg width="28" height="31" viewBox="0 0 28 31" fill="none" xmlns="http://www.w3.org/2000/svg">
<path fill-rule="evenodd" clip-rule="evenodd" d="M4.51396 27.4664L4.51866 27.4689C4.55792 27.4908 4.60208 27.5028 4.64722 27.504C4.69628 27.5026 4.74418 27.4889 4.78626 27.4643L4.7911 27.4613L24.9696 15.759C25.0114 15.7312 25.046 15.6944 25.0704 15.6514C25.0972 15.6046 25.1112 15.552 25.1112 15.4985C25.1112 15.445 25.0972 15.3924 25.0704 15.3456C25.046 15.3026 25.0114 15.2658 24.9696 15.238L4.79104 3.53681L4.7828 3.53195C4.74376 3.50893 4.69904 3.49649 4.65334 3.49593C4.60764 3.49537 4.56262 3.50672 4.52298 3.52879L4.51612 3.53261L4.50924 3.53638C4.38972 3.60199 4.2454 3.77716 4.2454 4.04887V26.9512C4.2454 27.2213 4.39096 27.3988 4.50924 27.4637L4.51396 27.4664ZM26.3442 13.0898C26.7652 13.3456 27.1124 13.7008 27.353 14.1221C27.5936 14.5434 27.72 15.017 27.72 15.4985C27.72 15.98 27.5936 16.4536 27.353 16.8749C27.1124 17.2962 26.7652 17.6514 26.3442 17.9072L6.13588 29.6269C5.68742 29.8896 5.17378 30.0293 4.64974 30.0312C4.14922 30.0303 3.65756 29.9032 3.22312 29.6623C2.24486 29.1255 1.63672 28.0829 1.63672 26.9512V4.04887C1.63672 2.91402 2.24486 1.87472 3.22312 1.3377C3.6679 1.09007 4.17318 0.962719 4.68616 0.968969C5.19912 0.975222 5.70094 1.11484 6.13914 1.37324L26.3442 13.0898Z" fill="#2A87F7"/>
</svg>
